<svg xmlns="http://www.w3.org/2000/svg" width="24" height="24" fill="none"><path fill="#262626" d="M13.385 18a1.385 1.385 0 11-2.77 0 1.385 1.385 0 012.77 0M12 5.538c-2.545 0-4.615 1.864-4.615 4.154v.462a.923.923 0 101.846 0v-.462c0-1.269 1.242-2.307 2.769-2.307s2.77 1.038 2.77 2.307C14.77 10.962 13.526 12 12 12a.923.923 0 00-.923.923v.923a.923.923 0 001.846 0v-.083c2.105-.386 3.692-2.065 3.692-4.07 0-2.291-2.07-4.155-4.615-4.155M24 12A12 12 0 1112 0a12.013 12.013 0 0112 12m-1.846 0A10.154 10.154 0 1012 22.154 10.165 10.165 0 0022.154 12"/></svg>