<svg width="32" height="32" fill="none" xmlns="http://www.w3.org/2000/svg"><path d="M32 16a16 16 0 11-32 0 16 16 0 0132 0zm-15.426-4.188c-1.557.648-4.668 1.988-9.332 4.02-.756.3-1.153.595-1.19.884-.06.486.55.678 1.38.94l.35.11c.816.266 1.916.576 2.486.588.52.013 1.099-.2 1.736-.64 4.359-2.941 6.608-4.428 6.748-4.46.1-.024.24-.052.332.032.092.084.084.24.074.282-.06.258-2.454 2.482-3.692 3.634-.386.36-.66.614-.716.672-.123.126-.249.25-.376.372-.76.732-1.328 1.28.03 2.176.654.432 1.178.786 1.7 1.142.568.388 1.136.774 1.872 1.258.187.123.367.247.54.374.662.472 1.26.896 1.994.828.428-.04.87-.44 1.094-1.64.53-2.834 1.572-8.972 1.812-11.502.015-.21.006-.422-.026-.63a.68.68 0 00-.228-.434 1.06 1.06 0 00-.62-.186c-.6.01-1.526.332-5.968 2.18z" fill="#b4b4b4"/></svg>