<svg width="50" height="55" fill="none" xmlns="http://www.w3.org/2000/svg"><path d="M34.633 25.396H7.7c-.384 0-.753.177-1.025.491-.271.314-.424.74-.424 1.185 0 .445.153.871.424 1.185.272.315.64.491 1.025.491h26.934L24.063 40.97a1.82 1.82 0 0 0-.425 1.187c0 .445.153.872.425 1.187a1.36 1.36 0 0 0 1.026.491 1.36 1.36 0 0 0 1.026-.491l13.043-15.084c.134-.156.242-.34.315-.544a1.908 1.908 0 0 0 0-1.285 1.715 1.715 0 0 0-.315-.544L26.115 10.802a1.36 1.36 0 0 0-1.026-.492 1.36 1.36 0 0 0-1.026.492 1.82 1.82 0 0 0-.425 1.186c0 .446.153.872.425 1.187l10.57 12.221z" fill="#fff"/></svg>