<svg width="12" height="8" viewBox="0 0 12 8" fill="none" xmlns="http://www.w3.org/2000/svg">
<path d="M11.0685 0.21027L6.38373 6.3579C6.28151 6.49273 6.14353 6.56836 5.99974 6.56836C5.85596 6.56836 5.71798 6.49273 5.61576 6.3579L0.930984 0.211604C0.828133 0.0768444 0.689702 0.00133382 0.545502 0.00133382C0.401302 0.00133382 0.262871 0.0768444 0.16002 0.211604C0.109374 0.277436 0.0691239 0.356119 0.0416414 0.443016C0.014159 0.529914 2.65352e-07 0.623267 2.65352e-07 0.717574C2.65352e-07 0.811881 0.014159 0.905234 0.0416414 0.992131C0.0691239 1.07903 0.109374 1.15771 0.16002 1.22354L4.8438 7.36984C5.15231 7.77372 5.56739 8 5.99974 8C6.4321 8 6.84718 7.77372 7.15569 7.36984L11.8395 1.22354C11.8903 1.15769 11.9306 1.07893 11.9582 0.991905C11.9858 0.904884 12 0.811375 12 0.716907C12 0.622439 11.9858 0.528931 11.9582 0.44191C11.9306 0.35489 11.8903 0.276123 11.8395 0.21027C11.7366 0.0755106 11.5982 2.84217e-08 11.454 2.84217e-08C11.3098 2.84217e-08 11.1714 0.0755106 11.0685 0.21027Z" fill="#262626"/>
</svg>
