<svg width="22" height="10" viewBox="0 0 22 10" fill="none" xmlns="http://www.w3.org/2000/svg">
<path d="M20.2923 0.262836L11.7035 7.94738C11.5161 8.11592 11.2631 8.21045 10.9995 8.21045C10.7359 8.21045 10.483 8.11592 10.2956 7.94738L1.7068 0.264504C1.51824 0.0960549 1.26445 0.00166693 1.00008 0.00166695C0.735719 0.00166697 0.481929 0.096055 0.293368 0.264504C0.200519 0.346795 0.126725 0.445148 0.0763408 0.55377C0.0259582 0.662392 -8.06118e-07 0.779084 -7.95813e-07 0.896968C-7.85507e-07 1.01485 0.0259582 1.13154 0.0763409 1.24016C0.126725 1.34879 0.200519 1.44714 0.293369 1.52943L8.8803 9.21231C9.44589 9.71715 10.2069 10 10.9995 10C11.7922 10 12.5532 9.71715 13.1188 9.21231L21.7057 1.52943C21.7988 1.44711 21.8729 1.34865 21.9234 1.23988C21.974 1.1311 22 1.01422 22 0.896132C22 0.778047 21.974 0.661161 21.9234 0.552385C21.8729 0.44361 21.7988 0.345152 21.7057 0.262836C21.5171 0.0943861 21.2633 -1.84295e-06 20.999 -1.81984e-06C20.7346 -1.79672e-06 20.4808 0.0943862 20.2923 0.262836Z" fill="#262626"/>
</svg>
