<svg width="12" height="8" viewBox="0 0 12 8" fill="none" xmlns="http://www.w3.org/2000/svg">
<path d="M0.931497 7.78973L5.61627 1.6421C5.71849 1.50727 5.85647 1.43164 6.00026 1.43164C6.14404 1.43164 6.28202 1.50727 6.38424 1.6421L11.069 7.7884C11.1719 7.92316 11.3103 7.99867 11.4545 7.99867C11.5987 7.99867 11.7371 7.92316 11.84 7.7884C11.8906 7.72256 11.9309 7.64388 11.9584 7.55698C11.9858 7.47009 12 7.37673 12 7.28243C12 7.18812 11.9858 7.09477 11.9584 7.00787C11.9309 6.92097 11.8906 6.84229 11.84 6.77646L7.1562 0.630156C6.84769 0.226279 6.43261 0 6.00026 0C5.5679 0 5.15282 0.226279 4.84431 0.630156L0.160533 6.77646C0.109734 6.84231 0.0693536 6.92107 0.0417802 7.0081C0.0142067 7.09512 0 7.18863 0 7.28309C0 7.37756 0.0142067 7.47107 0.0417802 7.55809C0.0693536 7.64511 0.109734 7.72388 0.160533 7.78973C0.263384 7.92449 0.401815 8 0.546015 8C0.690215 8 0.828646 7.92449 0.931497 7.78973Z" fill="#262626"/>
</svg>
