<svg width="24" height="21" viewBox="0 0 24 21" fill="none" xmlns="http://www.w3.org/2000/svg">
<path d="M2.74187 2.73214L2.74191 2.73209C3.88897 1.59194 5.40901 0.895832 7.02823 0.770463C8.64747 0.645091 10.258 1.09883 11.5694 2.04901L12.0077 2.36663L12.4473 2.05062C13.8329 1.05437 15.5458 0.612268 17.2453 0.813131C18.9448 1.01399 20.505 1.84287 21.6162 3.13359L22.1846 2.64426L21.6162 3.1336C22.7273 4.42418 23.3085 6.08214 23.2453 7.77785C23.1822 9.47311 22.4797 11.0836 21.2761 12.2892C21.2757 12.2895 21.2754 12.2898 21.2751 12.2902L14.1522 19.3686C14.1522 19.3686 14.1522 19.3686 14.1521 19.3686C13.5846 19.9324 12.814 20.25 12.0094 20.25C11.2049 20.25 10.4343 19.9324 9.8667 19.3686C9.86669 19.3686 9.86668 19.3686 9.86667 19.3686L2.74187 12.2895C1.46594 11.0214 0.75 9.30263 0.75 7.51143C0.75 5.7201 1.46604 4.00009 2.74187 2.73214Z" stroke="#262626" stroke-width="1.5"/>
</svg>
