<svg width="24" height="21" viewBox="0 0 24 21" fill="none" xmlns="http://www.w3.org/2000/svg">
<path fill-rule="evenodd" clip-rule="evenodd" d="M2.21319 2.20017C3.48701 0.934008 5.17412 0.161774 6.97033 0.0227006C8.76654 -0.116373 10.5537 0.386867 12.0094 1.44168C13.5476 0.335779 15.4481 -0.154493 17.3333 0.068315C19.2185 0.291123 20.9504 1.2107 22.1846 2.64426C23.4188 4.07782 24.065 5.9204 23.9948 7.80575C23.9246 9.69111 23.1431 11.4812 21.8057 12.8202L14.6808 19.9006C13.9722 20.6046 13.0114 21 12.0094 21C11.0075 21 10.0466 20.6046 9.33808 19.9006L2.21319 12.8214C0.796102 11.4131 0 9.50305 0 7.51143C0 5.51981 0.796102 3.6085 2.21319 2.20017Z" fill="#9B9B9B"/>
</svg>
