<svg width="32" height="32" fill="none" xmlns="http://www.w3.org/2000/svg"><path d="M4.771.785 16 12.015 27.17.843A2.676 2.676 0 0 1 29.09 0 2.909 2.909 0 0 1 32 2.909a2.619 2.619 0 0 1-.786 1.92l-11.316 11.17 11.316 11.317c.48.469.76 1.104.786 1.774A2.909 2.909 0 0 1 29.09 32a2.676 2.676 0 0 1-2.007-.786L16 19.984l-11.2 11.2A2.676 2.676 0 0 1 2.91 32 2.909 2.909 0 0 1 0 29.09a2.618 2.618 0 0 1 .786-1.92L12.102 16 .786 4.683A2.618 2.618 0 0 1 0 2.909 2.909 2.909 0 0 1 2.91 0c.698.009 1.367.29 1.861.785z" fill="#fff"/></svg>