<svg xmlns="http://www.w3.org/2000/svg" width="96" height="96" fill="none"><path fill="#CDCDCD" d="M14.764 25.168C20.376 19.084 28.868 16 40 16h4v11.276l-3.216.644c-5.48 1.096-9.292 3.252-11.332 6.416A11.6 11.6 0 0 0 27.7 40H40a4 4 0 0 1 4 4v28c0 4.412-3.588 8-8 8H12a4 4 0 0 1-4-4V56l.012-11.676c-.036-.444-.796-10.964 6.752-19.156M80 80H56a4 4 0 0 1-4-4V56l.012-11.676c-.036-.444-.796-10.964 6.752-19.156C64.376 19.084 72.868 16 84 16h4v11.276l-3.216.644c-5.48 1.096-9.292 3.252-11.332 6.416A11.6 11.6 0 0 0 71.7 40H84a4 4 0 0 1 4 4v28c0 4.412-3.588 8-8 8"/></svg>