<svg width="32" height="32" fill="none" xmlns="http://www.w3.org/2000/svg"><path d="M16 0a16 16 0 1016 16A16.016 16.016 0 0016 0zm9.502 12.34v1.034a.593.593 0 01-.608.592 8.582 8.582 0 01-4.644-1.772v7.564a6.301 6.301 0 01-1.888 4.496 6.416 6.416 0 01-4.592 1.872 6.565 6.565 0 01-4.58-1.872 6.368 6.368 0 01-1.641-6.088 6.154 6.154 0 011.493-2.74 5.727 5.727 0 014.464-2.101h1.312v2.725a.556.556 0 01-.624.556 3.069 3.069 0 00-1.968 5.81 3.28 3.28 0 001.41.427c.385.016.769-.032 1.134-.147a3.085 3.085 0 002.1-2.906V6.006a.574.574 0 01.575-.576h2.264a.574.574 0 01.574.544 5.284 5.284 0 002.051 3.592 5.2 5.2 0 002.626 1.018.592.592 0 01.54.56l.002 1.197z" fill="#b4b4b4"/></svg>