<?xml version="1.0" encoding="utf-8"?><svg width="42" height="34" viewBox="0 0 42 34" xmlns="http://www.w3.org/2000/svg" xmlns:xlink="http://www.w3.org/1999/xlink"><svg width="12" height="8" fill="none" viewBox="0 0 12 8" id="chevron-down" xmlns="http://www.w3.org/2000/svg"><path d="M11.069.21 6.384 6.358a.487.487 0 0 1-.384.21.487.487 0 0 1-.384-.21L.93.212a.49.49 0 0 0-.385-.21.49.49 0 0 0-.386.21.75.75 0 0 0-.118.231.914.914 0 0 0 0 .55.75.75 0 0 0 .118.23L4.844 7.37C5.152 7.774 5.567 8 6 8c.432 0 .847-.226 1.156-.63l4.683-6.146a.75.75 0 0 0 .12-.232.913.913 0 0 0 0-.55.75.75 0 0 0-.12-.232.49.49 0 0 0-.385-.21.49.49 0 0 0-.386.21z" fill="#262626"/></svg><svg width="12" height="8" fill="none" viewBox="0 0 12 8" id="chevron-up" x="12" y="8" xmlns="http://www.w3.org/2000/svg"><path d="m.931 7.79 4.685-6.148A.487.487 0 0 1 6 1.432c.144 0 .282.075.384.21l4.685 6.146a.49.49 0 0 0 .385.21.49.49 0 0 0 .386-.21.752.752 0 0 0 .118-.231.917.917 0 0 0 0-.55.752.752 0 0 0-.118-.23L7.156.63C6.848.226 6.433 0 6 0c-.432 0-.847.226-1.156.63L.161 6.776a.75.75 0 0 0-.12.232.914.914 0 0 0 0 .55.75.75 0 0 0 .12.232.49.49 0 0 0 .385.21.49.49 0 0 0 .385-.21z" fill="#262626"/></svg><svg width="18" height="18" fill="none" viewBox="0 0 18 18" id="search-icon" x="24" y="16" xmlns="http://www.w3.org/2000/svg"><path d="M7.773 2.25a5.523 5.523 0 1 0 0 11.045 5.523 5.523 0 0 0 0-11.045z" stroke="#262626" stroke-miterlimit="10"/><path d="m11.893 11.893 3.857 3.857" stroke="#262626" stroke-miterlimit="10" stroke-linecap="round"/></svg></svg>