<?xml version="1.0" encoding="utf-8"?><svg width="234" height="226" viewBox="0 0 234 226" xmlns="http://www.w3.org/2000/svg" xmlns:xlink="http://www.w3.org/1999/xlink"><svg width="12" height="8" fill="none" viewBox="0 0 12 8" id="chevron-down" xmlns="http://www.w3.org/2000/svg"><path d="M11.069.21 6.384 6.358a.487.487 0 0 1-.384.21.487.487 0 0 1-.384-.21L.93.212a.49.49 0 0 0-.385-.21.49.49 0 0 0-.386.21.75.75 0 0 0-.118.231.914.914 0 0 0 0 .55.75.75 0 0 0 .118.23L4.844 7.37C5.152 7.774 5.567 8 6 8c.432 0 .847-.226 1.156-.63l4.683-6.146a.75.75 0 0 0 .12-.232.913.913 0 0 0 0-.55.75.75 0 0 0-.12-.232.49.49 0 0 0-.385-.21.49.49 0 0 0-.386.21z" fill="#262626"/></svg><svg width="12" height="8" fill="none" viewBox="0 0 12 8" id="chevron-up" x="12" y="8" xmlns="http://www.w3.org/2000/svg"><path d="m.931 7.79 4.685-6.148A.487.487 0 0 1 6 1.432c.144 0 .282.075.384.21l4.685 6.146a.49.49 0 0 0 .385.21.49.49 0 0 0 .386-.21.752.752 0 0 0 .118-.231.917.917 0 0 0 0-.55.752.752 0 0 0-.118-.23L7.156.63C6.848.226 6.433 0 6 0c-.432 0-.847.226-1.156.63L.161 6.776a.75.75 0 0 0-.12.232.914.914 0 0 0 0 .55.75.75 0 0 0 .12.232.49.49 0 0 0 .385.21.49.49 0 0 0 .385-.21z" fill="#262626"/></svg><svg width="32" height="32" fill="none" viewBox="0 0 32 32" id="facebook-icon" x="24" y="16" xmlns="http://www.w3.org/2000/svg"><g clip-path="url(#da)"><path d="M32 16.098c0-8.892-7.164-16.1-16-16.1C7.16 0-.004 7.206-.004 16.1c0 8.034 5.852 14.694 13.5 15.902v-11.25h-4.06V16.1H13.5v-3.55c0-4.034 2.39-6.262 6.044-6.262 1.752 0 3.582.314 3.582.314v3.96h-2.018c-1.986 0-2.606 1.242-2.606 2.516v3.02h4.436l-.708 4.652H18.5V32C26.148 30.792 32 24.132 32 16.098z" fill="#b4b4b4"/></g><defs><clipPath id="da"><path fill="#fff" d="M0 0h32v32H0z"/></clipPath></defs></svg><svg width="32" height="32" fill="none" viewBox="0 0 32 32" id="facebook-icon-hover" x="56" y="48" xmlns="http://www.w3.org/2000/svg"><g clip-path="url(#ca)"><path d="M32 16.098c0-8.892-7.164-16.1-16-16.1C7.16 0-.004 7.206-.004 16.1c0 8.034 5.852 14.694 13.5 15.902v-11.25h-4.06V16.1H13.5v-3.55c0-4.034 2.39-6.262 6.044-6.262 1.752 0 3.582.314 3.582.314v3.96h-2.018c-1.986 0-2.606 1.242-2.606 2.516v3.02h4.436l-.708 4.652H18.5V32C26.148 30.792 32 24.132 32 16.098z" fill="#b4b4b4"/></g><defs><clipPath id="ca"><path fill="#fff" d="M0 0h32v32H0z"/></clipPath></defs></svg><svg width="32" height="32" fill="none" viewBox="0 0 32 32" id="instagram-icon" x="88" y="80" xmlns="http://www.w3.org/2000/svg"><g clip-path="url(#ea)" fill="#CDCDCD"><path d="M16 10.666a5.333 5.333 0 1 0 0 10.667 5.333 5.333 0 0 0 0-10.666z"/><path fill-rule="evenodd" clip-rule="evenodd" d="M9.6 0A9.6 9.6 0 0 0 0 9.6v12.8A9.6 9.6 0 0 0 9.6 32h12.8a9.6 9.6 0 0 0 9.6-9.6V9.6A9.6 9.6 0 0 0 22.4 0H9.6zM8.533 16a7.466 7.466 0 1 1 14.933 0 7.466 7.466 0 0 1-14.933 0zm14.934-7.467H25.6V6.4h-2.133v2.133z"/></g><defs><clipPath id="ea"><path fill="#fff" d="M0 0h32v32H0z"/></clipPath></defs></svg><svg width="18" height="18" fill="none" viewBox="0 0 18 18" id="search-icon" x="120" y="112" xmlns="http://www.w3.org/2000/svg"><path d="M7.773 2.25a5.523 5.523 0 1 0 0 11.045 5.523 5.523 0 0 0 0-11.045z" stroke="#262626" stroke-miterlimit="10"/><path d="m11.893 11.893 3.857 3.857" stroke="#262626" stroke-miterlimit="10" stroke-linecap="round"/></svg><svg width="32" height="32" fill="none" viewBox="0 0 32 32" id="telegram-icon" x="138" y="130" xmlns="http://www.w3.org/2000/svg"><path d="M32 16a16 16 0 1 1-32 0 16 16 0 0 1 32 0zm-15.426-4.188c-1.557.648-4.668 1.988-9.332 4.02-.756.3-1.153.595-1.19.884-.06.486.55.678 1.38.94l.35.11c.816.266 1.916.576 2.486.588.52.013 1.099-.2 1.736-.64 4.359-2.941 6.608-4.428 6.748-4.46.1-.024.24-.052.332.032.092.084.084.24.074.282-.06.258-2.454 2.482-3.692 3.634-.386.36-.66.614-.716.672-.123.126-.249.25-.376.372-.76.732-1.328 1.28.03 2.176.654.432 1.178.786 1.7 1.142.568.388 1.136.774 1.872 1.258.187.123.367.247.54.374.662.472 1.26.896 1.994.828.428-.04.87-.44 1.094-1.64.53-2.834 1.572-8.972 1.812-11.502.015-.21.006-.422-.026-.63a.68.68 0 0 0-.228-.434 1.06 1.06 0 0 0-.62-.186c-.6.01-1.526.332-5.968 2.18z" fill="#CDCDCD"/></svg><svg width="32" height="32" fill="none" viewBox="0 0 32 32" id="tiktok-icon" x="170" y="162" xmlns="http://www.w3.org/2000/svg"><g clip-path="url(#ha)"><path d="M16 0a16 16 0 1 0 16 16A16.016 16.016 0 0 0 16 0zm9.502 12.34v1.034a.593.593 0 0 1-.608.592 8.582 8.582 0 0 1-4.644-1.772v7.564a6.301 6.301 0 0 1-1.888 4.496 6.416 6.416 0 0 1-4.592 1.872 6.565 6.565 0 0 1-4.58-1.872 6.368 6.368 0 0 1-1.641-6.088 6.154 6.154 0 0 1 1.493-2.74 5.727 5.727 0 0 1 4.464-2.101h1.312v2.725a.556.556 0 0 1-.624.556 3.069 3.069 0 0 0-1.968 5.81 3.28 3.28 0 0 0 1.41.427c.385.016.769-.032 1.134-.147a3.085 3.085 0 0 0 2.1-2.906V6.006a.574.574 0 0 1 .575-.576h2.264a.574.574 0 0 1 .574.544 5.284 5.284 0 0 0 2.051 3.592 5.2 5.2 0 0 0 2.626 1.018.592.592 0 0 1 .54.56l.002 1.197z" fill="#CDCDCD"/></g><defs><clipPath id="ha"><path fill="#fff" d="M0 0h32v32H0z"/></clipPath></defs></svg><svg width="32" height="32" fill="none" viewBox="0 0 32 32" id="youtube-icon" x="202" y="194" xmlns="http://www.w3.org/2000/svg"><g clip-path="url(#ia)"><path d="m25.241 13.32-1.921-.801 2.29-1.217a5.973 5.973 0 0 0 2.498-8.104 6.008 6.008 0 0 0-8.12-2.5L6.389 7.907a6 6 0 0 0-3.202 5.59 6.026 6.026 0 0 0 3.554 5.205c.048.017 1.923.8 1.923.8l-2.275 1.202a6.013 6.013 0 0 0-3.158 5.29A6.04 6.04 0 0 0 9.24 32a6.01 6.01 0 0 0 2.773-.677l13.614-7.208a5.986 5.986 0 0 0 2.135-8.696 6.043 6.043 0 0 0-2.52-2.099zm-12.445 6.933v-8.488l8.01 4.246-8.01 4.242z" fill="#CDCDCD"/></g><defs><clipPath id="ia"><path fill="#fff" d="M0 0h32v32H0z"/></clipPath></defs></svg></svg>