<?xml version="1.0" encoding="utf-8"?><svg width="53" height="56" viewBox="0 0 53 56" xmlns="http://www.w3.org/2000/svg" xmlns:xlink="http://www.w3.org/1999/xlink"><svg width="24" height="24" fill="none" viewBox="0 0 24 24" id="chevron-down" xmlns="http://www.w3.org/2000/svg"><path d="M12 15.586 4.707 8.293a1 1 0 0 0-1.414 1.414l7.858 7.859a1.2 1.2 0 0 0 1.697 0l7.86-7.859a1 1 0 0 0-1.415-1.414L12 15.586z" fill="#262626"/></svg><svg width="18" height="18" fill="none" viewBox="0 0 18 18" id="search-icon" x="24" y="24" xmlns="http://www.w3.org/2000/svg"><path d="M7.773 2.25a5.523 5.523 0 1 0 0 11.045 5.523 5.523 0 0 0 0-11.045z" stroke="#262626" stroke-miterlimit="10"/><path d="m11.893 11.893 3.857 3.857" stroke="#262626" stroke-miterlimit="10" stroke-linecap="round"/></svg><svg width="11" height="14" fill="none" viewBox="0 0 11 14" id="sign-in" x="42" y="42" xmlns="http://www.w3.org/2000/svg"><path d="M3.667 1H9a1.333 1.333 0 0 1 1.333 1.333v9.334A1.333 1.333 0 0 1 9 13H3.667m4-6L5 4.333M7.667 7 5 9.667M7.667 7H1" stroke="#262626" stroke-linecap="round" stroke-linejoin="round"/></svg></svg>