<svg width="250" height="250" fill="none" xmlns="http://www.w3.org/2000/svg"><path opacity=".992" fill-rule="evenodd" clip-rule="evenodd" d="M174.716 0h15.106c12.624 3.175 21.435 10.854 26.435 23.036a90894.33 90894.33 0 0 1 33.232 155.967v8.308c-2.185 13.15-9.235 22.843-21.148 29.079A11435.244 11435.244 0 0 1 71.997 250h-8.308c-13.44-2.226-23.133-9.526-29.079-21.903A29071.028 29071.028 0 0 1 1 72.507v-12.84c2.906-12.462 10.207-21.399 21.903-26.812A27665.82 27665.82 0 0 1 174.716 0z" fill="#F8B042"/><path fill-rule="evenodd" clip-rule="evenodd" d="M74.263 53.625c6.15-.887 11.562.623 16.238 4.532l2.266 4.532.756 80.815a7662.95 7662.95 0 0 0 62.689-80.815l7.175-7.175c5.55-2.474 11.089-2.474 16.616 0 2.498 2.098 4.134 4.741 4.909 7.93a5012.28 5012.28 0 0 1 0 123.112c-1.384 4.405-4.28 7.301-8.685 8.686a37.236 37.236 0 0 1-10.574 0c-4.229-1.459-6.872-4.354-7.931-8.686a3653.347 3653.347 0 0 1-1.51-80.816 3663.818 3663.818 0 0 1-69.11 87.991c-6.45 3.786-12.619 3.408-18.504-1.133a17.059 17.059 0 0 1-3.02-6.042 5140.104 5140.104 0 0 1 0-124.623c1.84-3.983 4.735-6.752 8.685-8.308z" fill="#FFFEFE"/></svg>