<svg width="70" height="60" fill="none" xmlns="http://www.w3.org/2000/svg"><rect x="61.567" width="52.867" height="52.968" rx="15" transform="rotate(81.648 61.567 0)" fill="#FFC978"/><path d="M45.886 14.657c.021-4.256 16.063-10.078 21.651-4.953.429.394 2.094 1.945 1.98 3.835-.147 2.394-3.26 2.736-3.557 5.469-.237 2.18 1.613 3.188 1.313 5.34-.05.365-.148.66-.282.91-.815 1.546-1.416 2.037-2.511 3.186-2.078 2.175-1.285 4.73-2.32 5.346-1.687.998-4.902-1.067-6.685-2.353-3.386-2.44-1.03-6.772-4.593-11.787-2.49-3.503-5.003-3.31-4.994-4.996l-.002.003z" fill="#718CD2"/><path d="M44.743 16.438c-.216-4.113 7.243-7.325 8.087-7.679 2.055-.863 7.147-3.017 11.7-.682 2.94 1.507 4.502 4.596 4.14 5.029-.398.476-2.72-2.75-7.006-3.294-3.85-.488-8.588 1.106-11.497 4.287-2.142 2.341-2.772 5.02-3.972 4.837-.784-.12-1.395-1.4-1.452-2.496v-.002z" fill="#99ECFF"/><path d="M46.329 19.592a1.32 1.32 0 01-.235-.02c-1.157-.177-1.924-1.716-1.998-3.1-.233-4.429 7.025-7.698 8.482-8.311l.026-.012c2.22-.93 7.419-3.111 12.216-.65 2.532 1.299 4.246 3.79 4.507 5.085.079.395.024.71-.168.935-.532.637-1.215.12-2.003-.48-1.107-.844-2.957-2.255-5.578-2.587-3.803-.483-8.303 1.195-10.94 4.082-.873.954-1.5 1.998-2.006 2.837-.74 1.228-1.335 2.219-2.305 2.219l.002.002zm-.944-3.188c.05.974.585 1.842.906 1.89.256.038.826-.902 1.24-1.592.535-.887 1.199-1.993 2.16-3.043 2.95-3.226 7.794-5.032 12.052-4.49 2.629.333 4.58 1.631 5.775 2.521-.604-.954-1.7-2.226-3.283-3.039-4.265-2.187-9.076-.17-11.13.693l-.026.012c-2.93 1.228-7.848 4.094-7.692 7.048h-.002zM29.02 19.022c-1.148-5.137-22.074-7.926-27.48-.247-.414.589-2.02 2.906-1.382 5.161.808 2.856 4.663 2.445 5.739 5.669.86 2.572-1.112 4.28-.182 6.806.158.43.354.76.58 1.029 1.392 1.651 2.588 2.474 4.214 3.572 3.084 2.08 2.583 2.724 4 3.19 2.3.76 5.52-.317 7.339-2.346 3.45-3.849-.54-8.46 2.451-15.468 2.087-4.894 5.176-5.327 4.72-7.363v-.003z" fill="#718CD2"/><path d="M30.874 20.871c-.822-5.03-10.684-6.936-11.8-7.14-2.713-.498-9.439-1.752-14.325 2.277C1.591 18.61.211 22.585.762 23.013c.606.469 2.87-3.873 7.91-5.666 4.526-1.611 10.674-.94 15.028 2.134 3.206 2.265 4.673 5.335 6.077 4.794.915-.353 1.318-2.06 1.097-3.402v-.002z" fill="#99ECFF"/><path d="M29.434 24.99c-.966 0-1.843-.931-2.909-2.061-.836-.885-1.876-1.988-3.194-2.919-3.99-2.817-9.927-3.661-14.444-2.055-3.079 1.096-5.099 3.217-6.306 4.484-.925.97-1.534 1.61-2.212 1.086-.24-.185-.362-.478-.369-.87-.021-1.471 1.62-4.902 4.342-7.147 5.096-4.2 11.906-2.953 14.813-2.419l.036.007c1.905.349 11.45 2.361 12.32 7.672.262 1.596-.24 3.623-1.502 4.11a1.593 1.593 0 01-.575.111zm-15.546-9.153c3.606 0 7.306 1.082 10.184 3.116 1.423 1.005 2.513 2.159 3.388 3.086.867.919 1.686 1.787 2.084 1.633.48-.185.894-1.464.693-2.695-.745-4.549-10.203-6.412-11.281-6.609l-.036-.007c-2.732-.5-9.13-1.673-13.763 2.147-2.063 1.7-3.261 3.933-3.693 5.226.06-.062.122-.127.18-.19 1.287-1.35 3.438-3.61 6.807-4.808 1.7-.606 3.554-.899 5.432-.899h.005z" fill="#718CD2"/><path d="M39.282 14.702c-1.74.05-5.988.438-9.99 3.37-7.485 5.487-11.268 17.8-6.263 24.337 3.432 4.481 9.697 4.558 16.828 4.642 3.125.036 14.883.173 17.547-5.758.482-1.07.52-2.495.601-5.346.14-4.883-.877-8.301-1.198-9.314-.16-.507-.548-1.73-1.083-2.822-2.513-5.128-9.311-9.318-16.44-9.109h-.002z" fill="#99ECFF"/><path d="M40.664 47.703c-.268 0-.541 0-.817-.005-7.356-.087-13.708-.159-17.33-4.895-2.018-2.635-2.804-6.36-2.212-10.489.82-5.736 4.198-11.53 8.607-14.763 3.946-2.892 8.18-3.43 10.35-3.495 3.482-.101 7.139.834 10.29 2.637 3.047 1.743 5.444 4.17 6.75 6.832.555 1.135.95 2.38 1.118 2.911.513 1.618 1.357 5.01 1.23 9.528-.084 2.933-.125 4.406-.66 5.594-1.832 4.077-7.66 6.142-17.326 6.142v.003zm-1.363-32.354c-2.022.06-5.964.56-9.628 3.245-4.142 3.037-7.32 8.494-8.091 13.903-.542 3.782.156 7.162 1.957 9.518 3.242 4.236 9.304 4.305 16.325 4.387 11.952.135 15.817-2.846 16.953-5.375.428-.952.467-2.337.544-5.1.122-4.327-.68-7.558-1.17-9.099-.16-.505-.534-1.683-1.047-2.733-2.537-5.178-9.347-8.936-15.843-8.748v.002z" fill="#718CD2"/><path d="M45.555 22.239c.613-.44 1.303-.44 1.797-.44 2.102 0 3.506 1.986 3.716 1.789.175-.164-.546-1.772-2.084-2.614-1.203-.658-2.82-.8-4.06-.091-.656.375-1.564 1.195-1.377 1.818.094.307.455.572.788.56.482-.015.621-.592 1.218-1.022h.002zm-11.515.587c-.655-.375-1.342-.306-1.833-.253-2.092.216-3.285 2.337-3.515 2.164-.192-.144.361-1.82 1.806-2.815 1.129-.78 2.724-1.087 4.028-.51.692.305 1.677 1.027 1.555 1.666-.06.317-.393.615-.726.64-.48.033-.678-.525-1.315-.892z" fill="#718CD2"/><path d="M58.875 37.562c-.393-.17-.853-.382-.808-.817.022-.212.163-.426.293-.632.426-.685.9-1.548 1.013-2.263.053-.339-.014-.678-.263-.867-.345-.262-.956-.188-1.476.036-1.258.538-2.157 1.928-1.893 2.933.053.202.144.41.036.637-.175.365-.702.492-1.124.603-1.061.281-3.486 1.8-2.255 2.705.712.521 1.634-.161 2.346-.289.966-.173 1.929.197 2.66.827 1.442 1.243 2.274 3.101 1.31 4.9-.805 1.5-6.021 3.132-9.208 1.017-4.212-2.794-2.988-9.398-4.064-13.725a4 4 0 00-1.2-1.604c-.973-.764-2.032-.803-3.048-.841-.803-.029-2.13-.08-3.235.707a4.652 4.652 0 00-.891.855c-.367.467-.57.921-.685 1.236-.17.661.007 1.289.079 2.13.232 2.729 1.214 5.852 2.439 8.217 2.264 4.376 6.019 8 11.333 8.494 3.413.315 7.72-.707 10.359-3.178 4.346-4.073 2.082-9.439-1.716-11.08h-.002z" fill="#99ECFF"/><path d="M63.504 42.483c-.42-2.416-2.094-4.529-4.375-5.514a2.772 2.772 0 01-.405-.205c.036-.077.108-.192.153-.267l.024-.038c.647-1.039 1-1.834 1.105-2.505.096-.623-.089-1.161-.51-1.483-.501-.383-1.294-.4-2.121-.046-1.574.673-2.612 2.366-2.264 3.69l.03.108c.01.032.022.07.03.101-.113.092-.463.183-.638.229l-.048.012c-.8.211-2.813 1.23-3.053 2.495-.057.305-.057.885.583 1.356.78.572 1.643.248 2.274.01.21-.08.412-.157.565-.183.702-.128 1.479.122 2.128.68.539.464 2.219 2.133 1.164 4.102-.225.42-1.21 1.038-2.654 1.404-2.13.538-4.234.307-5.631-.618-2.677-1.777-2.952-5.378-3.218-8.862-.127-1.668-.247-3.245-.618-4.644a3.807 3.807 0 00-.132-.404c-.19.531-.563.904-1.023 1.118.27 1.2.376 2.577.488 4.029.276 3.618.587 7.717 3.791 9.842 1.692 1.123 4.181 1.418 6.656.793 1.33-.336 2.943-1.05 3.477-2.043 1.004-1.873.446-4.056-1.46-5.695-.943-.813-2.105-1.169-3.193-.974-.27.048-.537.15-.793.245-.508.193-.856.306-1.06.157-.052-.039-.076-.07-.076-.063.002-.339 1.227-1.26 2.116-1.495l.048-.012c.503-.133 1.193-.315 1.49-.935.199-.416.093-.787.029-1.008l-.022-.077c-.163-.62.482-1.726 1.524-2.173.45-.192.774-.161.834-.115.012.014.04.1.017.252-.074.48-.386 1.159-.923 2.02l-.024.036c-.146.233-.328.524-.364.87-.093.918.777 1.296 1.193 1.476 1.857.803 3.276 2.59 3.616 4.548.338 1.948-.402 3.888-2.084 5.465-2.629 2.464-6.846 3.281-9.86 3.005-6.036-.558-9.372-5.344-10.821-8.148-1.249-2.413-2.16-5.469-2.37-7.974-.022-.242-.05-.468-.077-.685-.05-.39-.088-.692-.064-.974a2.222 2.222 0 01-1.026-1.074c-.371.788-.283 1.486-.187 2.214.027.197.053.404.072.627.225 2.664 1.188 5.905 2.511 8.46 2.715 5.246 6.922 8.383 11.846 8.84.4.036.82.055 1.254.055 3.146 0 7.037-1 9.603-3.404 2.01-1.885 2.89-4.238 2.476-6.63l-.003.01z" fill="#718CD2"/><path d="M37.21 32.38l-.8-.895c.466-.42 2.098-1.808 3.493-2.008 3.393-.485 5.437 1.126 5.717 1.88a.644.644 0 01-.24.787l-.652-1.01c-.297.192-.297.548-.213.683-.156-.255-1.636-1.553-4.445-1.15-.845.12-2.07.998-2.863 1.712h.002z" fill="#718CD2"/><path d="M33.066 35.081c2.336 0 4.23-2.042 4.23-4.56 0-2.519-1.894-4.56-4.23-4.56-2.335 0-4.229 2.041-4.229 4.56 0 2.518 1.894 4.56 4.23 4.56z" fill="#fff"/><path d="M33.066 35.682c-2.662 0-4.828-2.315-4.828-5.161 0-2.847 2.166-5.162 4.828-5.162 2.662 0 4.829 2.315 4.829 5.162 0 2.846-2.167 5.161-4.829 5.161zm0-9.123c-2 0-3.63 1.777-3.63 3.96 0 2.182 1.63 3.959 3.63 3.959 2.001 0 3.63-1.777 3.63-3.96 0-2.182-1.626-3.959-3.63-3.959z" fill="#718CD2"/><path d="M33.495 30.52c0 .842-.479 1.523-1.07 1.523-.592 0-1.072-.68-1.072-1.522 0-.841.48-1.522 1.071-1.522.592 0 1.071.68 1.071 1.522z" fill="#718CD2"/><path d="M48.478 34.168c2.336 0 4.23-2.042 4.23-4.56 0-2.52-1.894-4.561-4.23-4.561-2.336 0-4.229 2.042-4.229 4.56 0 2.519 1.893 4.56 4.23 4.56z" fill="#fff"/><path d="M48.478 34.769c-2.662 0-4.828-2.315-4.828-5.162 0-2.846 2.166-5.163 4.828-5.163 2.662 0 4.828 2.315 4.828 5.163 0 2.85-2.166 5.162-4.828 5.162zm0-9.123c-2 0-3.63 1.776-3.63 3.961 0 2.186 1.627 3.96 3.63 3.96s3.63-1.777 3.63-3.96-1.629-3.962-3.63-3.962z" fill="#718CD2"/><path d="M49.106 29.793c0 .84-.479 1.521-1.07 1.521-.593 0-1.072-.68-1.072-1.521 0-.842.48-1.522 1.071-1.522.592 0 1.071.68 1.071 1.521zm-19.104 8.39c.321-.173.745.788 2.166 1.341 1.572.613 2.676.072 2.832.452.235.572-1.826 2.895-3.608 2.262-1.795-.637-1.92-3.774-1.39-4.055z" fill="#718CD2"/></svg>