<?xml version="1.0" encoding="utf-8"?><svg viewBox="0 0 134 108" xmlns="http://www.w3.org/2000/svg" xmlns:xlink="http://www.w3.org/1999/xlink"><style>:root>svg{display:none}:root>svg:target{display:block}</style><svg fill="none" viewBox="0 0 50 55" id="arrow-right-icon" xmlns="http://www.w3.org/2000/svg"><path d="M34.633 25.396H7.7a1.36 1.36 0 0 0-1.025.491 1.82 1.82 0 0 0-.424 1.185c0 .445.153.871.424 1.185.272.315.64.491 1.025.491h26.934L24.063 40.97a1.82 1.82 0 0 0-.425 1.187c0 .445.153.872.425 1.187a1.36 1.36 0 0 0 1.026.491 1.36 1.36 0 0 0 1.026-.491L39.158 28.26c.134-.156.242-.34.315-.544a1.908 1.908 0 0 0 0-1.285 1.715 1.715 0 0 0-.315-.544L26.115 10.802a1.36 1.36 0 0 0-1.026-.492 1.36 1.36 0 0 0-1.026.492 1.82 1.82 0 0 0-.425 1.186c0 .446.153.872.425 1.187l10.57 12.221z" fill="#fff"/></svg><svg fill="none" viewBox="0 0 12 14" id="cart-icon" xmlns="http://www.w3.org/2000/svg"><path d="m1.503 4.316 8.303.009c.297 0 .505.403.535.902l.416 6.965c.03.499-.239.902-.535.902H1.168c-.296 0-.559-.403-.535-.902L.97 5.269c.024-.5.238-.954.534-.953zm6.806-.519c0-.475-.122-.942-.352-1.353a2.66 2.66 0 0 0-.96-.99 2.547 2.547 0 0 0-2.617.007c-.397.24-.727.583-.955.995a2.78 2.78 0 0 0-.344 1.356" stroke="#262626"/></svg><svg fill="none" viewBox="0 0 12 14" id="cart-icon-hover" xmlns="http://www.w3.org/2000/svg"><path d="m1.503 4.316 8.303.009c.297 0 .505.403.535.902l.416 6.965c.03.499-.239.902-.535.902H1.168c-.296 0-.559-.403-.535-.902L.97 5.269c.024-.5.238-.954.534-.953zm6.806-.519c0-.475-.122-.942-.352-1.353a2.66 2.66 0 0 0-.96-.99 2.547 2.547 0 0 0-2.617.007c-.397.24-.727.583-.955.995a2.78 2.78 0 0 0-.344 1.356" stroke="#f6b569"/></svg><svg fill="none" viewBox="0 0 22 10" id="chevron-down" xmlns="http://www.w3.org/2000/svg"><path d="m20.292.263-8.589 7.684a1.05 1.05 0 0 1-.704.263 1.05 1.05 0 0 1-.703-.263L1.706.265A1.063 1.063 0 0 0 1 .002C.736.002.482.096.293.265a.885.885 0 0 0-.217.289.814.814 0 0 0 0 .686c.05.109.125.207.217.29L8.88 9.211A3.188 3.188 0 0 0 11 10c.792 0 1.553-.283 2.119-.788l8.587-7.683a.885.885 0 0 0 .217-.29.814.814 0 0 0 0-.687.885.885 0 0 0-.217-.29A1.063 1.063 0 0 0 20.999 0c-.264 0-.518.094-.707.263z" fill="#262626"/></svg><svg fill="none" viewBox="0 0 12 8" id="chevron-up" xmlns="http://www.w3.org/2000/svg"><path d="m.931 7.79 4.685-6.148A.487.487 0 0 1 6 1.432c.144 0 .282.075.384.21l4.685 6.146a.49.49 0 0 0 .385.21.49.49 0 0 0 .386-.21.752.752 0 0 0 .118-.231.917.917 0 0 0 0-.55.752.752 0 0 0-.118-.23L7.156.63C6.848.226 6.433 0 6 0c-.432 0-.847.226-1.156.63L.161 6.776a.75.75 0 0 0-.12.232.914.914 0 0 0 0 .55.75.75 0 0 0 .12.232.49.49 0 0 0 .385.21.49.49 0 0 0 .385-.21z" fill="#262626"/></svg><svg fill="none" viewBox="0 0 32 32" id="facebook-icon" xmlns="http://www.w3.org/2000/svg"><path d="M32 16.098c0-8.892-7.164-16.1-16-16.1C7.16 0-.004 7.206-.004 16.1c0 8.034 5.852 14.694 13.5 15.902v-11.25h-4.06V16.1H13.5v-3.55c0-4.034 2.39-6.262 6.044-6.262 1.752 0 3.582.314 3.582.314v3.96h-2.018c-1.986 0-2.606 1.242-2.606 2.516v3.02h4.436l-.708 4.652H18.5V32C26.148 30.792 32 24.132 32 16.098z" fill="#cdcdcd"/></svg><svg fill="none" viewBox="0 0 32 32" id="facebook-icon-hover" xmlns="http://www.w3.org/2000/svg"><path d="M32 16.098c0-8.892-7.164-16.1-16-16.1C7.16 0-.004 7.206-.004 16.1c0 8.034 5.852 14.694 13.5 15.902v-11.25h-4.06V16.1H13.5v-3.55c0-4.034 2.39-6.262 6.044-6.262 1.752 0 3.582.314 3.582.314v3.96h-2.018c-1.986 0-2.606 1.242-2.606 2.516v3.02h4.436l-.708 4.652H18.5V32C26.148 30.792 32 24.132 32 16.098z" fill="#b4b4b4"/></svg><svg fill="none" viewBox="0 0 24 21" id="favorite-icon" xmlns="http://www.w3.org/2000/svg"><path d="M2.742 2.732a6.841 6.841 0 0 1 8.827-.683l.439.318.44-.316a6.845 6.845 0 0 1 9.168 1.083l.569-.49-.569.49a6.733 6.733 0 0 1 1.63 4.644 6.74 6.74 0 0 1-1.97 4.512l-7.124 7.079a3.04 3.04 0 0 1-2.143.881 3.04 3.04 0 0 1-2.142-.881l-7.125-7.08A6.736 6.736 0 0 1 .75 7.512c0-1.79.716-3.51 1.992-4.779z" stroke="#262626" stroke-width="1.5"/></svg><svg fill="none" viewBox="0 0 24 21" id="favorite-icon-selected" xmlns="http://www.w3.org/2000/svg"><path fill-rule="evenodd" clip-rule="evenodd" d="M2.213 2.2a7.591 7.591 0 0 1 9.796-.758 7.595 7.595 0 0 1 10.176 1.202 7.483 7.483 0 0 1 1.81 5.162 7.49 7.49 0 0 1-2.19 5.014l-7.124 7.08a3.79 3.79 0 0 1-2.672 1.1 3.79 3.79 0 0 1-2.67-1.1l-7.126-7.079A7.486 7.486 0 0 1 0 7.511c0-1.991.796-3.903 2.213-5.31z" fill="#9B9B9B"/></svg><svg fill="none" viewBox="0 0 32 32" id="instagram-icon" xmlns="http://www.w3.org/2000/svg"><g fill="#CDCDCD"><path d="M16 10.666a5.333 5.333 0 1 0 0 10.667 5.333 5.333 0 0 0 0-10.666z"/><path fill-rule="evenodd" clip-rule="evenodd" d="M9.6 0A9.6 9.6 0 0 0 0 9.6v12.8A9.6 9.6 0 0 0 9.6 32h12.8a9.6 9.6 0 0 0 9.6-9.6V9.6A9.6 9.6 0 0 0 22.4 0H9.6zM8.533 16a7.466 7.466 0 1 1 14.933 0 7.466 7.466 0 0 1-14.933 0zm14.934-7.467H25.6V6.4h-2.133v2.133z"/></g></svg><svg fill="none" viewBox="0 0 32 32" id="instagram-icon-hover" xmlns="http://www.w3.org/2000/svg"><g fill="#b4b4b4"><path d="M16 10.666a5.333 5.333 0 1 0 0 10.667 5.333 5.333 0 0 0 0-10.666z"/><path fill-rule="evenodd" clip-rule="evenodd" d="M9.6 0A9.6 9.6 0 0 0 0 9.6v12.8A9.6 9.6 0 0 0 9.6 32h12.8a9.6 9.6 0 0 0 9.6-9.6V9.6A9.6 9.6 0 0 0 22.4 0H9.6zM8.533 16a7.466 7.466 0 1 1 14.933 0 7.466 7.466 0 0 1-14.933 0zm14.934-7.467H25.6V6.4h-2.133v2.133z"/></g></svg><svg fill="none" viewBox="0 0 43 43" id="next-icon" xmlns="http://www.w3.org/2000/svg"><circle cx="21.5" cy="21.5" r="20.5" transform="matrix(-1 0 0 1 43 0)" fill="#fff" stroke="#262626" stroke-width="2"/><path d="M18 29.547 30.266 21.5 18 13.453v16.094z" fill="#fff" stroke="#262626" stroke-width="3"/></svg><svg fill="none" viewBox="0 0 43 43" id="next-icon-hover" xmlns="http://www.w3.org/2000/svg"><circle cx="21.5" cy="21.5" r="20.5" transform="matrix(-1 0 0 1 43 0)" fill="#fff" stroke="#f6b569" stroke-width="2"/><path d="M18 29.547 30.266 21.5 18 13.453v16.094z" fill="#fff" stroke="#f6b569" stroke-width="3"/></svg><svg fill="none" viewBox="0 0 134 108" id="play-icon" xmlns="http://www.w3.org/2000/svg"><path d="M104.5 4h-75c-13.807 0-25 11.193-25 25v50c0 13.807 11.193 25 25 25h75c13.807 0 25-11.193 25-25V29c0-13.807-11.193-25-25-25z" stroke="#fff" stroke-width="8" stroke-linecap="round" stroke-linejoin="round"/><path d="M85.75 54 54.5 35.25v37.5L85.75 54z" stroke="#fff" stroke-width="8" stroke-linecap="round" stroke-linejoin="round"/></svg><svg fill="none" viewBox="0 0 16 16" id="plus-icon" xmlns="http://www.w3.org/2000/svg"><path d="M14 6h-4V2a2 2 0 1 0-4 0l.071 4H2a2 2 0 1 0 0 4l4.071-.071L6 14a2 2 0 0 0 4 0V9.929L14 10a2 2 0 0 0 0-4z" fill="#262626"/></svg><svg fill="none" viewBox="0 0 32 32" id="popup-close-icon" xmlns="http://www.w3.org/2000/svg"><path d="M4.771.785 16 12.015 27.17.843A2.676 2.676 0 0 1 29.09 0 2.909 2.909 0 0 1 32 2.909a2.619 2.619 0 0 1-.786 1.92l-11.316 11.17 11.316 11.317c.48.469.76 1.104.786 1.774A2.909 2.909 0 0 1 29.09 32a2.676 2.676 0 0 1-2.007-.786L16 19.984l-11.2 11.2A2.676 2.676 0 0 1 2.91 32 2.909 2.909 0 0 1 0 29.09a2.618 2.618 0 0 1 .786-1.92L12.102 16 .786 4.683A2.618 2.618 0 0 1 0 2.909 2.909 2.909 0 0 1 2.91 0c.698.009 1.367.29 1.861.785z" fill="#fff"/></svg><svg fill="none" viewBox="0 0 43 43" id="prev-icon" xmlns="http://www.w3.org/2000/svg"><circle cx="21.5" cy="21.5" r="20.5" fill="#fff" stroke="#262626" stroke-width="2"/><path d="M25 29.547 12.734 21.5 25 13.453v16.094z" fill="#fff" stroke="#262626" stroke-width="3"/></svg><svg fill="none" viewBox="0 0 43 43" id="prev-icon-hover" xmlns="http://www.w3.org/2000/svg"><circle cx="21.5" cy="21.5" r="20.5" fill="#fff" stroke="#f6b569" stroke-width="2"/><path d="M25 29.547 12.734 21.5 25 13.453v16.094z" fill="#fff" stroke="#f6b569" stroke-width="3"/></svg><svg fill="none" viewBox="0 0 18 18" id="search-icon" xmlns="http://www.w3.org/2000/svg"><path d="M7.773 2.25a5.523 5.523 0 1 0 0 11.045 5.523 5.523 0 0 0 0-11.045z" stroke="#262626" stroke-miterlimit="10"/><path d="m11.893 11.893 3.857 3.857" stroke="#262626" stroke-miterlimit="10" stroke-linecap="round"/></svg><svg fill="none" viewBox="0 0 18 18" id="search-icon-hover" xmlns="http://www.w3.org/2000/svg"><path d="M7.773 2.25a5.523 5.523 0 1 0 0 11.045 5.523 5.523 0 0 0 0-11.045z" stroke="#f6b569" stroke-miterlimit="10"/><path d="m11.893 11.893 3.857 3.857" stroke="#f6b569" stroke-miterlimit="10" stroke-linecap="round"/></svg><svg fill="none" viewBox="0 0 11 14" id="sign-in" xmlns="http://www.w3.org/2000/svg"><path d="M3.667 1H9a1.333 1.333 0 0 1 1.333 1.333v9.334A1.333 1.333 0 0 1 9 13H3.667m4-6L5 4.333M7.667 7 5 9.667M7.667 7H1" stroke="#262626"/></svg><svg fill="none" viewBox="0 0 11 14" id="sign-in-hover" xmlns="http://www.w3.org/2000/svg"><path d="M3.667 1H9a1.333 1.333 0 0 1 1.333 1.333v9.334A1.333 1.333 0 0 1 9 13H3.667m4-6L5 4.333M7.667 7 5 9.667M7.667 7H1" stroke="#f6b569"/></svg><svg fill="none" viewBox="0 0 32 32" id="telegram-icon" xmlns="http://www.w3.org/2000/svg"><path d="M32 16a16 16 0 1 1-32 0 16 16 0 0 1 32 0zm-15.426-4.188c-1.557.648-4.668 1.988-9.332 4.02-.756.3-1.153.595-1.19.884-.06.486.55.678 1.38.94l.35.11c.816.266 1.916.576 2.486.588.52.013 1.099-.2 1.736-.64 4.359-2.941 6.608-4.428 6.748-4.46.1-.024.24-.052.332.032.092.084.084.24.074.282-.06.258-2.454 2.482-3.692 3.634-.386.36-.66.614-.716.672-.123.126-.249.25-.376.372-.76.732-1.328 1.28.03 2.176.654.432 1.178.786 1.7 1.142.568.388 1.136.774 1.872 1.258.187.123.367.247.54.374.662.472 1.26.896 1.994.828.428-.04.87-.44 1.094-1.64.53-2.834 1.572-8.972 1.812-11.502.015-.21.006-.422-.026-.63a.68.68 0 0 0-.228-.434 1.06 1.06 0 0 0-.62-.186c-.6.01-1.526.332-5.968 2.18z" fill="#CDCDCD"/></svg><svg fill="none" viewBox="0 0 32 32" id="telegram-icon-hover" xmlns="http://www.w3.org/2000/svg"><path d="M32 16a16 16 0 1 1-32 0 16 16 0 0 1 32 0zm-15.426-4.188c-1.557.648-4.668 1.988-9.332 4.02-.756.3-1.153.595-1.19.884-.06.486.55.678 1.38.94l.35.11c.816.266 1.916.576 2.486.588.52.013 1.099-.2 1.736-.64 4.359-2.941 6.608-4.428 6.748-4.46.1-.024.24-.052.332.032.092.084.084.24.074.282-.06.258-2.454 2.482-3.692 3.634-.386.36-.66.614-.716.672-.123.126-.249.25-.376.372-.76.732-1.328 1.28.03 2.176.654.432 1.178.786 1.7 1.142.568.388 1.136.774 1.872 1.258.187.123.367.247.54.374.662.472 1.26.896 1.994.828.428-.04.87-.44 1.094-1.64.53-2.834 1.572-8.972 1.812-11.502.015-.21.006-.422-.026-.63a.68.68 0 0 0-.228-.434 1.06 1.06 0 0 0-.62-.186c-.6.01-1.526.332-5.968 2.18z" fill="#b4b4b4"/></svg><svg fill="none" viewBox="0 0 32 32" id="tiktok-icon" xmlns="http://www.w3.org/2000/svg"><path d="M16 0a16 16 0 1 0 16 16A16.016 16.016 0 0 0 16 0zm9.502 12.34v1.034a.593.593 0 0 1-.608.592 8.582 8.582 0 0 1-4.644-1.772v7.564a6.301 6.301 0 0 1-1.888 4.496 6.416 6.416 0 0 1-4.592 1.872 6.565 6.565 0 0 1-4.58-1.872 6.368 6.368 0 0 1-1.641-6.088 6.154 6.154 0 0 1 1.493-2.74 5.727 5.727 0 0 1 4.464-2.101h1.312v2.725a.556.556 0 0 1-.624.556 3.069 3.069 0 0 0-1.968 5.81 3.28 3.28 0 0 0 1.41.427c.385.016.769-.032 1.134-.147a3.085 3.085 0 0 0 2.1-2.906V6.006a.574.574 0 0 1 .575-.576h2.264a.574.574 0 0 1 .574.544 5.284 5.284 0 0 0 2.051 3.592 5.2 5.2 0 0 0 2.626 1.018.592.592 0 0 1 .54.56l.002 1.197z" fill="#CDCDCD"/></svg><svg fill="none" viewBox="0 0 32 32" id="tiktok-icon-hover" xmlns="http://www.w3.org/2000/svg"><path d="M16 0a16 16 0 1 0 16 16A16.016 16.016 0 0 0 16 0zm9.502 12.34v1.034a.593.593 0 0 1-.608.592 8.582 8.582 0 0 1-4.644-1.772v7.564a6.301 6.301 0 0 1-1.888 4.496 6.416 6.416 0 0 1-4.592 1.872 6.565 6.565 0 0 1-4.58-1.872 6.368 6.368 0 0 1-1.641-6.088 6.154 6.154 0 0 1 1.493-2.74 5.727 5.727 0 0 1 4.464-2.101h1.312v2.725a.556.556 0 0 1-.624.556 3.069 3.069 0 0 0-1.968 5.81 3.28 3.28 0 0 0 1.41.427c.385.016.769-.032 1.134-.147a3.085 3.085 0 0 0 2.1-2.906V6.006a.574.574 0 0 1 .575-.576h2.264a.574.574 0 0 1 .574.544 5.284 5.284 0 0 0 2.051 3.592 5.2 5.2 0 0 0 2.626 1.018.592.592 0 0 1 .54.56l.002 1.197z" fill="#b4b4b4"/></svg><svg fill="none" viewBox="0 0 12 12" id="user-icon" xmlns="http://www.w3.org/2000/svg"><path d="M8.265 3.265a2.408 2.408 0 1 1-4.815 0 2.408 2.408 0 0 1 4.815 0zM6.447 6.459a4.71 4.71 0 0 1 4.227 4.684m-9.418 0a4.71 4.71 0 0 1 4.1-4.67" stroke="#262626"/></svg><svg fill="none" viewBox="0 0 12 12" id="user-icon-hover" xmlns="http://www.w3.org/2000/svg"><path d="M8.265 3.265a2.408 2.408 0 1 1-4.815 0 2.408 2.408 0 0 1 4.815 0zM6.447 6.459a4.71 4.71 0 0 1 4.227 4.684m-9.418 0a4.71 4.71 0 0 1 4.1-4.67" stroke="#f6b569"/></svg><svg fill="none" viewBox="0 0 32 32" id="youtube-icon" xmlns="http://www.w3.org/2000/svg"><path d="m25.241 13.32-1.921-.801 2.29-1.217a5.973 5.973 0 0 0 2.498-8.104 6.008 6.008 0 0 0-8.12-2.5L6.389 7.907a6 6 0 0 0-3.202 5.59 6.026 6.026 0 0 0 3.554 5.205c.048.017 1.923.8 1.923.8l-2.275 1.202a6.013 6.013 0 0 0-3.158 5.29A6.04 6.04 0 0 0 9.24 32a6.01 6.01 0 0 0 2.773-.677l13.614-7.208a5.986 5.986 0 0 0 2.135-8.696 6.043 6.043 0 0 0-2.52-2.099zm-12.445 6.933v-8.488l8.01 4.246-8.01 4.242z" fill="#CDCDCD"/></svg><svg fill="none" viewBox="0 0 32 32" id="youtube-icon-hover" xmlns="http://www.w3.org/2000/svg"><path d="m25.241 13.32-1.921-.801 2.29-1.217a5.973 5.973 0 0 0 2.498-8.104 6.008 6.008 0 0 0-8.12-2.5L6.389 7.907a6 6 0 0 0-3.202 5.59 6.026 6.026 0 0 0 3.554 5.205c.048.017 1.923.8 1.923.8l-2.275 1.202a6.013 6.013 0 0 0-3.158 5.29A6.04 6.04 0 0 0 9.24 32a6.01 6.01 0 0 0 2.773-.677l13.614-7.208a5.986 5.986 0 0 0 2.135-8.696 6.043 6.043 0 0 0-2.52-2.099zm-12.445 6.933v-8.488l8.01 4.246-8.01 4.242z" fill="#b4b4b4"/></svg></svg>