<svg width="298" height="112" viewBox="0 0 298 112" fill="none" xmlns="http://www.w3.org/2000/svg">
<path d="M140.88 36.56C140.88 34.8267 141.2 33.1333 141.84 31.48C142.507 29.8 143.467 28.28 144.72 26.92C145.973 25.56 147.493 24.48 149.28 23.68C151.093 22.8533 153.133 22.44 155.4 22.44C158.12 22.44 160.493 23.0133 162.52 24.16C164.547 25.28 166.053 26.7733 167.04 28.64L161.08 32.88C160.733 31.9467 160.227 31.2267 159.56 30.72C158.92 30.2133 158.213 29.8667 157.44 29.68C156.693 29.4667 155.96 29.36 155.24 29.36C154.12 29.36 153.147 29.5867 152.32 30.04C151.52 30.4667 150.853 31.04 150.32 31.76C149.813 32.48 149.427 33.28 149.16 34.16C148.92 35.04 148.8 35.92 148.8 36.8C148.8 37.7867 148.947 38.7333 149.24 39.64C149.533 40.5467 149.96 41.36 150.52 42.08C151.08 42.7733 151.76 43.32 152.56 43.72C153.387 44.12 154.307 44.32 155.32 44.32C156.04 44.32 156.773 44.2133 157.52 44C158.267 43.76 158.947 43.3867 159.56 42.88C160.173 42.3733 160.64 41.6933 160.96 40.84L167.32 44.64C166.76 46.0267 165.827 47.2133 164.52 48.2C163.213 49.1867 161.733 49.9467 160.08 50.48C158.427 50.9867 156.787 51.24 155.16 51.24C153.053 51.24 151.12 50.8267 149.36 50C147.627 49.1467 146.12 48.0267 144.84 46.64C143.587 45.2267 142.613 43.6533 141.92 41.92C141.227 40.16 140.88 38.3733 140.88 36.56ZM187.296 51V29.4H181.776L181.616 33.24C181.456 36.8667 181.11 39.8533 180.576 42.2C180.07 44.52 179.31 46.3467 178.296 47.68C177.283 48.9867 175.976 49.92 174.376 50.48C172.803 51.0133 170.896 51.28 168.656 51.28V44.56C169.563 44.56 170.336 44.4 170.976 44.08C171.643 43.7333 172.19 43.0933 172.616 42.16C173.07 41.2 173.416 39.8267 173.656 38.04C173.923 36.2267 174.11 33.8533 174.216 30.92L174.536 22.6H195.096V51H187.296ZM212.779 51.24C210.619 51.24 208.659 50.84 206.899 50.04C205.139 49.2133 203.619 48.12 202.339 46.76C201.086 45.3733 200.112 43.8267 199.419 42.12C198.752 40.3867 198.419 38.6 198.419 36.76C198.419 34.8667 198.779 33.0667 199.499 31.36C200.219 29.6533 201.219 28.1333 202.499 26.8C203.806 25.44 205.339 24.3733 207.099 23.6C208.886 22.8267 210.832 22.44 212.939 22.44C215.099 22.44 217.059 22.8533 218.819 23.68C220.579 24.48 222.086 25.5733 223.339 26.96C224.592 28.3467 225.552 29.9067 226.219 31.64C226.912 33.3467 227.259 35.1067 227.259 36.92C227.259 38.7867 226.899 40.5733 226.179 42.28C225.486 43.9867 224.486 45.52 223.179 46.88C221.899 48.2133 220.379 49.28 218.619 50.08C216.859 50.8533 214.912 51.24 212.779 51.24ZM206.339 36.84C206.339 37.8 206.472 38.7333 206.739 39.64C207.006 40.52 207.406 41.32 207.939 42.04C208.472 42.7333 209.139 43.2933 209.939 43.72C210.766 44.12 211.739 44.32 212.859 44.32C213.979 44.32 214.952 44.1067 215.779 43.68C216.606 43.2533 217.272 42.68 217.779 41.96C218.312 41.2133 218.699 40.4 218.939 39.52C219.206 38.6133 219.339 37.6933 219.339 36.76C219.339 35.8 219.206 34.88 218.939 34C218.672 33.12 218.272 32.3333 217.739 31.64C217.206 30.92 216.526 30.36 215.699 29.96C214.872 29.56 213.912 29.36 212.819 29.36C211.699 29.36 210.726 29.5733 209.899 30C209.099 30.4267 208.432 31 207.899 31.72C207.366 32.4133 206.966 33.2133 206.699 34.12C206.459 35 206.339 35.9067 206.339 36.84ZM255.685 22.6V51H247.885V39.88H238.365V51H230.565V22.6H238.365V33.08H247.885V22.6H255.685ZM260.565 51V22.6H268.365V32H273.005C275.138 32 276.965 32.3867 278.485 33.16C280.032 33.9067 281.218 34.9867 282.045 36.4C282.898 37.7867 283.325 39.4533 283.325 41.4C283.325 43.3733 282.925 45.08 282.125 46.52C281.325 47.96 280.178 49.0667 278.685 49.84C277.218 50.6133 275.458 51 273.405 51H260.565ZM268.365 44.68H272.285C272.978 44.68 273.552 44.5467 274.005 44.28C274.458 44.0133 274.792 43.64 275.005 43.16C275.245 42.6533 275.365 42.0667 275.365 41.4C275.365 40.8667 275.245 40.3733 275.005 39.92C274.765 39.44 274.418 39.0533 273.965 38.76C273.512 38.4667 272.952 38.32 272.285 38.32H268.365V44.68ZM286.965 51V22.6H294.765V51H286.965ZM141 92.44V80.2H142.76C143.427 80.2 144.013 79.9333 144.52 79.4C145.027 78.8667 145.453 78.0533 145.8 76.96C146.147 75.8667 146.413 74.4933 146.6 72.84C146.813 71.16 146.96 69.1867 147.04 66.92L147.28 58.6H167.88V80.2H171.88V92.44H165.08V87H147.8V92.44H141ZM151.6 80.2H160.08V65.4H154.4L154.32 68.04C154.267 70.0933 154.147 71.9067 153.96 73.48C153.8 75.0267 153.533 76.36 153.16 77.48C152.813 78.6 152.293 79.5067 151.6 80.2ZM195.766 80.2V87H175.526V58.6H195.406V65.4H183.326V69.4H193.646V75.72H183.326V80.2H195.766ZM221.513 65.4H213.353V87H205.553V65.4H197.353V58.6H221.513V65.4ZM224.514 87V58.6H232.314V75.88L242.794 58.6H250.074V87H242.274V69.72L231.914 87H224.514Z" fill="white"/>
<rect x="114.926" width="98.6851" height="98.8732" rx="15" transform="rotate(81.6482 114.926 0)" fill="#FFC978"/>
<path d="M85.6533 27.3595C85.6936 19.4165 115.639 8.54761 126.069 18.1151C126.87 18.851 129.978 21.7455 129.763 25.2727C129.491 29.7423 123.681 30.3796 123.126 35.4819C122.683 39.5521 126.136 41.4324 125.577 45.4488C125.483 46.1309 125.3 46.6829 125.049 47.1496C123.528 50.0351 122.406 50.9505 120.362 53.0956C116.484 57.1568 117.964 61.9271 116.032 63.0759C112.883 64.9383 106.881 61.0835 103.553 58.6826C97.2332 54.1277 101.63 46.0412 94.979 36.6801C90.3318 30.1417 85.6399 30.5007 85.6578 27.355L85.6533 27.3595Z" fill="#718CD2"/>
<path d="M83.5195 30.6844C83.117 23.0062 97.0406 17.0108 98.615 16.3511C102.453 14.7401 111.957 10.7192 120.455 15.0767C125.943 17.8904 128.86 23.6569 128.184 24.4646C127.442 25.3532 123.108 19.3309 115.106 18.3167C107.918 17.4057 99.0757 20.381 93.6458 26.318C89.6472 30.6889 88.4709 35.688 86.23 35.347C84.7674 35.1226 83.6269 32.7352 83.5195 30.6889V30.6844Z" fill="#99ECFF"/>
<path d="M86.4808 36.5721C86.3377 36.5721 86.1945 36.5631 86.0425 36.5362C83.8821 36.2041 82.4508 33.332 82.3122 30.7472C81.8783 22.4811 95.4263 16.378 98.1457 15.2337L98.1949 15.2113C102.337 13.4746 112.043 9.40438 120.997 13.9996C125.725 16.4229 128.923 21.072 129.41 23.4908C129.558 24.2268 129.455 24.8147 129.097 25.2365C128.104 26.4257 126.829 25.4609 125.358 24.339C123.291 22.7638 119.838 20.1296 114.945 19.5104C107.847 18.6084 99.4473 21.7407 94.5228 27.1302C92.8947 28.9118 91.7228 30.8594 90.7791 32.4256C89.397 34.7187 88.2878 36.5676 86.4763 36.5676L86.4808 36.5721ZM84.7185 30.6216C84.8125 32.439 85.8099 34.059 86.4092 34.1488C86.8878 34.2206 87.9523 32.4659 88.7261 31.178C89.7235 29.5221 90.9625 27.4578 92.756 25.4968C98.262 19.4745 107.306 16.1043 115.254 17.114C120.161 17.7378 123.801 20.1611 126.033 21.8215C124.906 20.0399 122.862 17.666 119.906 16.1492C111.944 12.0655 102.963 15.8306 99.1297 17.4416L99.0805 17.464C93.6103 19.7572 84.4323 25.1063 84.723 30.6216H84.7185Z" fill="#718CD2"/>
<path d="M54.1695 35.5088C52.0271 25.9189 12.9667 20.7133 2.87616 35.0466C2.10237 36.146 -0.894359 40.472 0.295389 44.6814C1.8027 50.0126 8.99934 49.2452 11.0076 55.263C12.6133 60.0647 8.93225 63.2509 10.6677 67.9673C10.9629 68.7706 11.3296 69.3854 11.7501 69.888C14.3487 72.9709 16.5806 74.5057 19.6176 76.5565C25.374 80.4382 24.4392 81.6409 27.0826 82.5115C31.3765 83.9295 37.3878 81.9191 40.7826 78.1316C47.2234 70.947 39.7763 62.3399 45.3582 49.2587C49.254 40.122 55.0194 39.3142 54.1695 35.5133V35.5088Z" fill="#718CD2"/>
<path d="M57.6318 38.9591C56.0977 29.5711 37.6879 26.0124 35.6036 25.631C30.5404 24.7021 17.9855 22.3596 8.86555 29.8807C2.97048 34.7407 0.394181 42.1587 1.42291 42.9575C2.55451 43.8325 6.78125 35.728 16.1874 32.3803C24.6364 29.3736 36.1135 30.6257 44.2404 36.3652C50.225 40.5925 52.9623 46.3231 55.5833 45.3134C57.2919 44.6538 58.0433 41.4676 57.6318 38.9635V38.9591Z" fill="#99ECFF"/>
<path d="M54.9435 46.6467C53.141 46.6467 51.504 44.91 49.5136 42.8009C47.9526 41.1494 46.0115 39.0897 43.5515 37.353C36.1044 32.0936 25.0209 30.5184 16.5898 33.5161C10.8423 35.5624 7.0718 39.5205 4.81754 41.8854C3.09106 43.6984 1.95498 44.8921 0.689194 43.9138C0.24192 43.5682 0.01381 43.0208 0.000391823 42.2893C-0.0398628 39.5429 3.02397 33.1392 8.105 28.9478C17.6185 21.108 30.33 23.4371 35.7555 24.4333L35.8226 24.4468C39.3784 25.0974 57.1978 28.8535 58.8214 38.7665C59.3089 41.7463 58.3741 45.5293 56.017 46.4403C55.6502 46.5794 55.2969 46.6467 54.9435 46.6467ZM25.9244 29.5626C32.6559 29.5626 39.5618 31.582 44.9335 35.3784C47.5904 37.2542 49.6255 39.4083 51.258 41.1405C52.8771 42.8547 54.4068 44.4747 55.1493 44.1875C56.0438 43.842 56.8176 41.4546 56.4419 39.157C55.0509 30.6665 37.397 27.1886 35.3842 26.8207L35.3172 26.8072C30.2182 25.8738 18.276 23.6839 9.62573 30.8146C5.7747 33.9873 3.53833 38.1562 2.73324 40.5705C2.84505 40.4539 2.96135 40.3327 3.06869 40.216C5.47055 37.694 9.48708 33.4757 15.7757 31.2409C18.9469 30.11 22.4088 29.5626 25.9155 29.5626H25.9244Z" fill="#718CD2"/>
<path d="M73.3269 27.4442C70.0797 27.5384 62.1495 28.2609 54.68 33.7357C40.7072 43.9763 33.6447 66.9616 42.9883 79.1633C49.3933 87.5281 61.0895 87.6717 74.4003 87.8288C80.2328 87.8961 102.181 88.1519 107.154 77.0811C108.053 75.0841 108.125 72.423 108.277 67.1007C108.536 57.9865 106.64 51.6052 106.041 49.7159C105.741 48.7691 105.016 46.4849 104.019 44.4475C99.3269 34.8756 86.6378 27.0538 73.3314 27.4442H73.3269Z" fill="#99ECFF"/>
<path d="M75.907 89.0453C75.4061 89.0453 74.8962 89.0453 74.3818 89.0363C60.6505 88.8748 48.7933 88.7402 42.0305 79.8997C38.2644 74.9813 36.7974 68.0256 37.9021 60.3204C39.4318 49.6131 45.7384 38.7981 53.9682 32.7624C61.3348 27.3638 69.2381 26.3586 73.2905 26.2374C79.7893 26.049 86.6147 27.7946 92.4964 31.1603C98.1857 34.4138 102.658 38.9462 105.096 43.9139C106.134 46.0321 106.872 48.3566 107.185 49.3484C108.142 52.3685 109.716 58.7004 109.479 67.1326C109.323 72.6074 109.247 75.3582 108.249 77.5751C104.828 85.186 93.95 89.0408 75.907 89.0408V89.0453ZM73.362 28.6517C69.587 28.7639 62.2294 29.6973 55.3905 34.71C47.6572 40.3777 41.7263 50.5645 40.2861 60.6615C39.2753 67.7204 40.5768 74.0299 43.9403 78.4277C49.992 86.3348 61.308 86.465 74.4131 86.6175C96.7231 86.8688 103.938 81.3043 106.058 76.5834C106.858 74.8063 106.93 72.2214 107.073 67.0652C107.301 58.9876 105.803 52.9564 104.89 50.0798C104.591 49.1374 103.893 46.9385 102.936 44.9775C98.1991 35.3113 85.4876 28.2972 73.362 28.6473V28.6517Z" fill="#718CD2"/>
<path d="M85.036 41.5127C86.181 40.6915 87.4691 40.6915 88.3905 40.6915C92.3131 40.6915 94.9341 44.3982 95.3277 44.0302C95.6542 43.7251 94.308 40.7229 91.4365 39.1522C89.1911 37.9227 86.172 37.6579 83.8596 38.9817C82.6341 39.6818 80.9389 41.212 81.2878 42.3743C81.4623 42.9487 82.1376 43.4423 82.7593 43.4199C83.6584 43.393 83.9178 42.316 85.0315 41.5127H85.036Z" fill="#718CD2"/>
<path d="M63.5406 42.6075C62.3196 41.9074 61.0359 42.0376 60.119 42.1363C56.2143 42.5402 53.9869 46.4982 53.5575 46.1751C53.1997 45.9058 54.2329 42.778 56.9299 40.9202C59.0366 39.4662 62.0154 38.8918 64.4486 39.9688C65.7412 40.5387 67.5795 41.885 67.3514 43.0787C67.2396 43.671 66.6179 44.2275 65.9962 44.2724C65.1016 44.3352 64.7304 43.2941 63.5406 42.6075Z" fill="#718CD2"/>
<path d="M109.9 70.1167C109.166 69.798 108.307 69.4031 108.392 68.5909C108.433 68.196 108.697 67.7966 108.938 67.4107C109.734 66.1317 110.62 64.5207 110.83 63.1879C110.928 62.5551 110.803 61.9224 110.338 61.5679C109.694 61.0787 108.553 61.2178 107.583 61.6352C105.235 62.6404 103.557 65.2342 104.049 67.11C104.148 67.487 104.318 67.8774 104.116 68.2992C103.79 68.9813 102.806 69.2191 102.019 69.4256C100.037 69.9506 95.5109 72.7868 97.8099 74.4741C99.1383 75.4479 100.86 74.1734 102.189 73.9356C103.991 73.6125 105.789 74.3036 107.153 75.4793C109.846 77.7994 111.398 81.2682 109.6 84.6249C108.097 87.4252 98.36 90.4722 92.4113 86.5232C84.5482 81.3086 86.8338 68.9813 84.8255 60.9037C84.5124 60.1633 83.8683 58.9157 82.5847 57.9105C80.7687 56.4835 78.7918 56.4117 76.8953 56.3399C75.397 56.286 72.9191 56.1918 70.8571 57.6592C69.9447 58.3099 69.2738 59.1491 69.1933 59.2568C68.509 60.1274 68.1288 60.9755 67.9141 61.5634C67.5965 62.7975 67.9275 63.9687 68.0617 65.5394C68.4955 70.6327 70.3294 76.4621 72.6149 80.8778C76.8417 89.0452 83.8505 95.8124 93.771 96.7324C100.14 97.3202 108.182 95.413 113.107 90.7998C121.22 83.1979 116.993 73.1817 109.904 70.1167H109.9Z" fill="#99ECFF"/>
<path d="M118.541 79.3026C117.758 74.7926 114.632 70.848 110.374 69.0081C110.208 68.9363 109.806 68.7613 109.618 68.6267C109.685 68.4831 109.819 68.2677 109.904 68.1285L109.949 68.0568C111.156 66.1181 111.814 64.6327 112.011 63.3807C112.19 62.2184 111.845 61.2132 111.058 60.6119C110.123 59.8984 108.643 59.867 107.1 60.5266C104.161 61.7831 102.224 64.9424 102.873 67.415C102.891 67.4823 102.909 67.5497 102.931 67.617C102.949 67.6753 102.971 67.7471 102.985 67.8054C102.775 67.976 102.122 68.1465 101.795 68.2318L101.706 68.2542C100.212 68.6491 96.4546 70.5518 96.0073 72.9123C95.8999 73.4822 95.8999 74.5637 97.0942 75.4433C98.5523 76.5113 100.162 75.9055 101.339 75.4612C101.732 75.3131 102.108 75.1695 102.394 75.1202C103.705 74.8823 105.154 75.349 106.366 76.3901C107.373 77.2562 110.508 80.3706 108.54 84.0459C108.119 84.8312 106.281 85.9845 103.584 86.6667C99.6078 87.6719 95.6808 87.2411 93.0732 85.5133C88.0771 82.197 87.5627 75.4747 87.0663 68.9722C86.8292 65.8578 86.6056 62.914 85.9123 60.3023C85.8407 60.0375 85.7602 59.7862 85.6663 59.5483C85.313 60.5401 84.6152 61.2357 83.7564 61.6351C84.2619 63.8743 84.4587 66.4457 84.6689 69.1562C85.1832 75.91 85.7647 83.5613 91.7448 87.5283C94.9025 89.624 99.5497 90.1759 104.17 89.0092C106.652 88.3809 109.663 87.0481 110.66 85.1947C112.534 81.6989 111.492 77.6242 107.936 74.5637C106.174 73.0469 104.005 72.3828 101.974 72.7462C101.468 72.836 100.972 73.0245 100.493 73.204C99.5452 73.563 98.8967 73.7739 98.5165 73.4957C98.4181 73.4239 98.3734 73.3655 98.3734 73.379C98.3778 72.7463 100.663 71.0275 102.323 70.5877L102.412 70.5653C103.352 70.3185 104.64 69.9774 105.194 68.8196C105.566 68.0433 105.369 67.3522 105.248 66.9393L105.208 66.7957C104.904 65.638 106.107 63.5737 108.052 62.739C108.893 62.38 109.497 62.4383 109.609 62.5236C109.631 62.5505 109.685 62.7121 109.64 62.9948C109.502 63.8923 108.92 65.1578 107.918 66.7643L107.873 66.8316C107.601 67.2669 107.261 67.8099 107.194 68.4561C107.019 70.1704 108.643 70.8749 109.421 71.2115C112.887 72.7103 115.535 76.0446 116.17 79.702C116.801 83.3369 115.419 86.9583 112.279 89.9022C107.373 94.5019 99.5005 96.0277 93.8738 95.5116C82.6069 94.4705 76.3809 85.5358 73.6749 80.3033C71.3446 75.7978 69.6449 70.0941 69.2513 65.4181C69.2111 64.9648 69.1574 64.543 69.1082 64.1391C69.0143 63.4121 68.9427 62.8467 68.9875 62.3217C68.1511 61.9178 67.4712 61.1818 67.0731 60.3157C66.3799 61.7876 66.5453 63.089 66.7243 64.4488C66.7735 64.8167 66.8226 65.2027 66.8584 65.62C67.2789 70.5922 69.0769 76.6414 71.5459 81.4117C76.6135 91.2036 84.4676 97.0598 93.6591 97.9125C94.406 97.9798 95.1888 98.0157 95.9983 98.0157C101.871 98.0157 109.135 96.1489 113.925 91.6613C117.678 88.1431 119.319 83.7497 118.545 79.2846L118.541 79.3026Z" fill="#718CD2"/>
<path d="M69.4578 60.4407L67.9639 58.7714C68.8361 57.986 71.882 55.3967 74.4851 55.0242C80.8185 54.1178 84.6338 57.1244 85.1571 58.5335C85.4031 59.1887 85.1079 59.7407 84.7098 60.0009L83.4932 58.1162C82.9386 58.4752 82.9386 59.1393 83.0951 59.3906C82.8044 58.915 80.0403 56.4917 74.7982 57.2456C73.2193 57.47 70.9338 59.1079 69.4533 60.4407H69.4578Z" fill="#718CD2"/>
<path d="M61.724 65.4853C66.0839 65.4853 69.6184 61.6739 69.6184 56.9724C69.6184 52.2708 66.0839 48.4595 61.724 48.4595C57.364 48.4595 53.8296 52.2708 53.8296 56.9724C53.8296 61.6739 57.364 65.4853 61.724 65.4853Z" fill="white"/>
<path d="M61.724 66.607C56.7548 66.607 52.7114 62.2855 52.7114 56.9722C52.7114 51.6589 56.7548 47.3374 61.724 47.3374C66.6932 47.3374 70.7366 51.6589 70.7366 56.9722C70.7366 62.2855 66.6932 66.607 61.724 66.607ZM61.724 49.5767C57.9893 49.5767 54.9478 52.893 54.9478 56.9677C54.9478 61.0424 57.9893 64.3587 61.724 64.3587C65.4587 64.3587 68.5002 61.0424 68.5002 56.9677C68.5002 52.893 65.4632 49.5767 61.724 49.5767Z" fill="#718CD2"/>
<path d="M62.5248 56.972C62.5248 58.5426 61.6302 59.8126 60.5254 59.8126C59.4207 59.8126 58.5261 58.5426 58.5261 56.972C58.5261 55.4013 59.4207 54.1313 60.5254 54.1313C61.6302 54.1313 62.5248 55.4013 62.5248 56.972Z" fill="#718CD2"/>
<path d="M90.4925 63.7802C94.8525 63.7802 98.3869 59.9688 98.3869 55.2673C98.3869 50.5657 94.8525 46.7544 90.4925 46.7544C86.1326 46.7544 82.5981 50.5657 82.5981 55.2673C82.5981 59.9688 86.1326 63.7802 90.4925 63.7802Z" fill="white"/>
<path d="M90.4928 64.9015C85.5236 64.9015 81.4802 60.58 81.4802 55.2667C81.4802 49.9535 85.5236 45.6274 90.4928 45.6274C95.462 45.6274 99.5054 49.949 99.5054 55.2667C99.5054 60.5845 95.462 64.9015 90.4928 64.9015ZM90.4928 47.8712C86.7581 47.8712 83.7166 51.1875 83.7166 55.2667C83.7166 59.3459 86.7536 62.6577 90.4928 62.6577C94.232 62.6577 97.269 59.3414 97.269 55.2667C97.269 51.192 94.2275 47.8712 90.4928 47.8712Z" fill="#718CD2"/>
<path d="M91.6649 55.6121C91.6649 57.1828 90.7703 58.4527 89.6656 58.4527C88.5608 58.4527 87.6663 57.1828 87.6663 55.6121C87.6663 54.0415 88.5608 52.7715 89.6656 52.7715C90.7703 52.7715 91.6649 54.0415 91.6649 55.6121Z" fill="#718CD2"/>
<path d="M56.0037 71.2742C56.603 70.9511 57.3947 72.7461 60.0471 73.7783C62.9812 74.9226 65.0431 73.9129 65.3338 74.6219C65.7722 75.6899 61.9256 80.0249 58.5979 78.8447C55.2478 77.6555 55.0152 71.7992 56.0037 71.2742Z" fill="#718CD2"/>
</svg>
