<svg width="70" height="60" viewBox="0 0 70 60" fill="none" xmlns="http://www.w3.org/2000/svg">
<rect x="61.5674" width="52.867" height="52.9678" rx="15" transform="rotate(81.6482 61.5674 0)" fill="#FFC978"/>
<path d="M45.8857 14.6566C45.9073 10.4014 61.9493 4.57879 67.537 9.70422C67.9659 10.0985 69.6312 11.6491 69.5162 13.5387C69.37 15.9331 66.2575 16.2745 65.9604 19.0079C65.7231 21.1884 67.5729 22.1957 67.2734 24.3473C67.2231 24.7127 67.1249 25.0084 66.9907 25.2584C66.176 26.8042 65.5746 27.2946 64.4796 28.4438C62.4021 30.6194 63.1952 33.1749 62.1601 33.7904C60.4733 34.7881 57.2577 32.723 55.475 31.4368C52.0893 28.9967 54.4446 24.6646 50.8816 19.6498C48.3921 16.1471 45.8786 16.3394 45.8881 14.6542L45.8857 14.6566Z" fill="#718CD2"/>
<path d="M44.7426 16.438C44.527 12.3246 51.9861 9.11283 52.8295 8.75944C54.8854 7.89638 59.9771 5.74236 64.5297 8.07669C67.4697 9.58403 69.032 12.6732 68.6702 13.106C68.2724 13.582 65.9506 10.3557 61.664 9.81241C57.8134 9.32439 53.0763 10.9183 50.1674 14.0988C48.0253 16.4404 47.3951 19.1185 46.1947 18.9358C45.4111 18.8156 44.8001 17.5366 44.7426 16.4404V16.438Z" fill="#99ECFF"/>
<path d="M46.329 19.5921C46.2523 19.5921 46.1756 19.5873 46.0941 19.5728C44.9368 19.3949 44.1701 17.8564 44.0958 16.4716C43.8634 12.0434 51.1212 8.77386 52.578 8.16082L52.6044 8.1488C54.8232 7.21844 60.0227 5.03796 64.8198 7.49971C67.3524 8.7979 69.0657 11.2885 69.3268 12.5843C69.4059 12.9785 69.3508 13.2935 69.1591 13.5194C68.6272 14.1565 67.9443 13.6397 67.156 13.0386C66.049 12.1948 64.1992 10.7836 61.5778 10.4519C57.7752 9.96867 53.2753 11.6467 50.6372 14.534C49.765 15.4884 49.1372 16.5317 48.6316 17.3707C47.8912 18.5992 47.297 19.5897 46.3266 19.5897L46.329 19.5921ZM45.3849 16.4043C45.4352 17.3779 45.9696 18.2458 46.2906 18.2939C46.547 18.3324 47.1173 17.3924 47.5318 16.7024C48.0662 15.8153 48.7299 14.7095 49.6907 13.6589C52.6403 10.4327 57.4853 8.62721 61.7432 9.16812C64.3717 9.50228 66.3221 10.8005 67.5178 11.69C66.914 10.7356 65.8189 9.46382 64.2351 8.65125C59.97 6.46356 55.1586 8.48056 53.1052 9.34361L53.0788 9.35564C50.1484 10.5841 45.2315 13.4497 45.3873 16.4043H45.3849Z" fill="#718CD2"/>
<path d="M29.0194 19.0223C27.8717 13.8849 6.94646 11.0962 1.54083 18.7747C1.12631 19.3637 -0.479086 21.6812 0.158279 23.9362C0.965768 26.7922 4.82111 26.3811 5.89696 29.6049C6.75717 32.1773 4.78517 33.8841 5.71486 36.4108C5.873 36.8411 6.06948 37.1705 6.29472 37.4397C7.68686 39.0913 8.88252 39.9135 10.5095 41.0121C13.5933 43.0917 13.0925 43.7359 14.5086 44.2023C16.8088 44.962 20.0292 43.885 21.8479 41.856C25.2983 38.0071 21.3087 33.3961 24.2991 26.3883C26.3861 21.4937 29.4747 21.061 29.0194 19.0247V19.0223Z" fill="#718CD2"/>
<path d="M30.8741 20.871C30.0522 15.8418 20.1899 13.9354 19.0733 13.731C16.3609 13.2334 9.63499 11.9785 4.74932 16.0077C1.59125 18.6112 0.21109 22.5851 0.762196 23.013C1.36841 23.4818 3.63274 19.1401 8.67176 17.3467C13.198 15.736 19.3464 16.4067 23.7002 19.4815C26.9062 21.7461 28.3726 24.8161 29.7767 24.2752C30.692 23.9218 31.0946 22.2149 30.8741 20.8734V20.871Z" fill="#99ECFF"/>
<path d="M29.434 24.9892C28.4684 24.9892 27.5914 24.0588 26.5252 22.9289C25.6889 22.0442 24.649 20.9408 23.3311 20.0104C19.3416 17.1929 13.4041 16.349 8.88739 17.9549C5.80838 19.0512 3.78846 21.1716 2.58082 22.4385C1.65592 23.4097 1.04731 24.0492 0.369211 23.5251C0.1296 23.34 0.00739824 23.0467 0.000209905 22.6549C-0.0213551 21.1836 1.61998 17.753 4.34196 15.5076C9.43849 11.3077 16.2482 12.5554 19.1547 13.0891L19.1907 13.0964C21.0956 13.4449 30.6417 15.4571 31.5115 20.7677C31.7726 22.364 31.2719 24.3906 30.0091 24.8786C29.8126 24.9531 29.6233 24.9892 29.434 24.9892ZM13.8881 15.837C17.4942 15.837 21.1938 16.9188 24.0715 18.9526C25.4948 19.9575 26.5851 21.1115 27.4596 22.0394C28.327 22.9578 29.1465 23.8256 29.5443 23.6718C30.0235 23.4867 30.438 22.2077 30.2367 20.9768C29.4915 16.4284 20.0341 14.5652 18.9558 14.3681L18.9199 14.3609C16.1883 13.8608 9.79072 12.6877 5.15664 16.5077C3.09359 18.2074 1.89553 20.4407 1.46423 21.7341C1.52414 21.6716 1.58644 21.6067 1.64394 21.5442C2.93065 20.1931 5.08236 17.9333 8.45129 16.7361C10.1501 16.1303 12.0047 15.837 13.8833 15.837H13.8881Z" fill="#718CD2"/>
<path d="M39.2822 14.7022C37.5426 14.7527 33.2943 15.1398 29.2928 18.0727C21.8073 23.5588 18.0239 35.8723 23.0293 42.4089C26.4606 46.89 32.7264 46.967 39.8572 47.0511C42.9818 47.0872 54.7395 47.2242 57.4039 41.2934C57.8856 40.2236 57.9239 38.798 58.0054 35.9468C58.1443 31.0642 57.1284 27.6456 56.8073 26.6335C56.6468 26.1263 56.2586 24.9026 55.7243 23.8112C53.2108 18.6833 46.413 14.4931 39.2846 14.7022H39.2822Z" fill="#99ECFF"/>
<path d="M40.6644 47.7026C40.3961 47.7026 40.1229 47.7026 39.8474 47.6978C32.4913 47.6113 26.1392 47.5392 22.5163 42.8032C20.4988 40.1683 19.7129 36.4421 20.3047 32.3143C21.1242 26.5782 24.5027 20.7845 28.9115 17.551C32.8579 14.659 37.0918 14.1205 39.2627 14.0556C42.7443 13.9546 46.4007 14.8898 49.5516 16.6928C52.5995 18.4357 54.9956 20.8638 56.3015 23.5251C56.8574 24.6598 57.2527 25.9051 57.4205 26.4364C57.9332 28.0543 58.7767 31.4464 58.6497 35.9637C58.5658 38.8966 58.5251 40.3703 57.9907 41.5579C56.1577 45.6351 50.3304 47.7002 40.6644 47.7002V47.7026ZM39.3011 15.3489C37.2787 15.409 33.3371 15.9091 29.6735 18.5944C25.5306 21.6307 22.3534 27.0879 21.5818 32.497C21.0403 36.2786 21.7376 39.6587 23.5394 42.0146C26.7814 46.2506 32.8435 46.3203 39.8641 46.402C51.8159 46.5367 55.6809 43.5556 56.8166 41.0266C57.2455 40.0746 57.2839 38.6898 57.3605 35.9276C57.4828 31.6003 56.6801 28.3693 56.1912 26.8283C56.0307 26.3234 55.6569 25.1454 55.1441 24.0949C52.6067 18.9165 45.7969 15.159 39.3011 15.3465V15.3489Z" fill="#718CD2"/>
<path d="M45.555 22.2389C46.1684 21.799 46.8585 21.799 47.3521 21.799C49.4535 21.799 50.8576 23.7847 51.0684 23.5876C51.2434 23.4241 50.5221 21.8158 48.9838 20.9744C47.781 20.3157 46.1636 20.1738 44.9248 20.883C44.2683 21.2581 43.3602 22.0778 43.5471 22.7005C43.6405 23.0082 44.0023 23.2727 44.3354 23.2606C44.817 23.2462 44.956 22.6692 45.5526 22.2389H45.555Z" fill="#718CD2"/>
<path d="M34.0396 22.8255C33.3854 22.4505 32.6978 22.5202 32.2066 22.5731C30.1148 22.7894 28.9215 24.9098 28.6915 24.7367C28.4998 24.5925 29.0533 22.9169 30.4981 21.9216C31.6267 21.1427 33.2225 20.835 34.526 21.4119C35.2185 21.7172 36.2033 22.4385 36.0811 23.0779C36.0212 23.3953 35.6881 23.6934 35.355 23.7174C34.8758 23.7511 34.6769 23.1933 34.0396 22.8255Z" fill="#718CD2"/>
<path d="M58.8749 37.5623C58.4819 37.3917 58.0219 37.1801 58.0674 36.745C58.089 36.5334 58.2303 36.3194 58.3597 36.1127C58.7862 35.4275 59.2607 34.5645 59.3733 33.8505C59.426 33.5115 59.3589 33.1725 59.1097 32.9826C58.7647 32.7206 58.1537 32.7951 57.6337 33.0187C56.3757 33.5572 55.4772 34.9467 55.7408 35.9516C55.7935 36.1536 55.8845 36.3627 55.7767 36.5887C55.6018 36.9541 55.0746 37.0815 54.6529 37.1921C53.5915 37.4734 51.1666 38.9927 52.3982 39.8967C53.1098 40.4183 54.0323 39.7356 54.744 39.6082C55.7096 39.4351 56.6728 39.8053 57.4037 40.4352C58.8461 41.6781 59.6776 43.5364 58.7143 45.3346C57.9092 46.8348 52.6929 48.4671 49.5061 46.3515C45.2937 43.558 46.5181 36.9541 45.4423 32.6268C45.2746 32.2302 44.9295 31.5618 44.2418 31.0233C43.269 30.2588 42.2099 30.2204 41.194 30.1819C40.3913 30.1531 39.0638 30.1026 37.9592 30.8887C37.4704 31.2373 37.111 31.6868 37.0679 31.7445C36.7013 32.2109 36.4976 32.6653 36.3826 32.9802C36.2125 33.6413 36.3898 34.2688 36.4617 35.1102C36.6941 37.8388 37.6765 40.9617 38.9009 43.3273C41.1652 47.7026 44.9199 51.3279 50.2345 51.8208C53.6466 52.1357 57.9548 51.114 60.5929 48.6426C64.9394 44.5701 62.6751 39.2043 58.8773 37.5623H58.8749Z" fill="#99ECFF"/>
<path d="M63.5041 42.4834C63.0848 40.0673 61.4099 37.9542 59.1288 36.9685C59.0401 36.9301 58.8245 36.8363 58.7239 36.7642C58.7598 36.6872 58.8317 36.5719 58.8772 36.4973L58.9012 36.4589C59.5481 35.4203 59.9003 34.6246 60.0058 33.9538C60.1016 33.3312 59.9171 32.7927 59.4954 32.4705C58.9946 32.0883 58.2015 32.0715 57.3748 32.4249C55.8006 33.098 54.7631 34.7905 55.1105 36.1151C55.1201 36.1511 55.1297 36.1872 55.1417 36.2233C55.1512 36.2545 55.1632 36.293 55.1704 36.3242C55.0578 36.4156 54.708 36.5069 54.5331 36.5526L54.4851 36.5646C53.6848 36.7762 51.6721 37.7955 51.4325 39.06C51.375 39.3654 51.375 39.9447 52.0147 40.4159C52.7959 40.9881 53.6585 40.6635 54.2887 40.4255C54.4995 40.3462 54.7008 40.2693 54.8541 40.2428C55.5562 40.1154 56.3325 40.3654 56.9819 40.9232C57.521 41.3872 59.2007 43.0556 58.1464 45.0245C57.9212 45.4452 56.9364 46.063 55.4915 46.4285C53.3614 46.967 51.2576 46.7362 49.8606 45.8106C47.1842 44.034 46.9086 40.4328 46.6427 36.9493C46.5157 35.2809 46.3959 33.7038 46.0245 32.3047C45.9861 32.1628 45.943 32.0282 45.8927 31.9008C45.7034 32.4321 45.3296 32.8047 44.8695 33.0187C45.1403 34.2183 45.2457 35.5958 45.3583 37.0479C45.6339 40.666 45.9454 44.7649 49.149 46.89C50.8406 48.0127 53.3302 48.3084 55.8054 47.6834C57.1352 47.3468 58.7478 46.6328 59.2821 45.6399C60.2861 43.7672 59.7278 41.5843 57.8229 39.9447C56.8788 39.1322 55.7167 38.7764 54.6289 38.9711C54.3581 39.0192 54.0922 39.1201 53.8358 39.2163C53.3278 39.4086 52.9804 39.5216 52.7767 39.3726C52.724 39.3341 52.7 39.3029 52.7 39.3101C52.7024 38.9711 53.9268 38.0503 54.8158 37.8147L54.8637 37.8027C55.3669 37.6705 56.057 37.4878 56.3541 36.8676C56.553 36.4517 56.4475 36.0814 56.3829 35.8603L56.3613 35.7833C56.1984 35.1631 56.8429 34.0572 57.8852 33.6101C58.3357 33.4177 58.6592 33.449 58.7191 33.4947C58.731 33.5091 58.7598 33.5956 58.7358 33.7471C58.6616 34.2279 58.3501 34.9058 57.8133 35.7665L57.7894 35.8026C57.6432 36.0358 57.4611 36.3266 57.4252 36.6728C57.3317 37.5912 58.2015 37.9686 58.6184 38.1489C60.4754 38.9519 61.8939 40.7381 62.2342 42.6974C62.572 44.6447 61.8316 46.5847 60.1495 48.1618C57.521 50.6259 53.3038 51.4433 50.2895 51.1668C44.2537 50.6091 40.9184 45.8226 39.4687 43.0195C38.2203 40.6058 37.3098 37.5503 37.099 35.0453C37.0774 34.8025 37.0486 34.5765 37.0223 34.3601C36.972 33.9707 36.9336 33.6678 36.9576 33.3865C36.5095 33.1701 36.1453 32.7759 35.932 32.3119C35.5607 33.1004 35.6493 33.7976 35.7452 34.526C35.7715 34.7231 35.7979 34.9299 35.817 35.1535C36.0423 37.8172 37.0055 41.0578 38.3282 43.6133C41.043 48.8589 45.2505 51.9962 50.1745 52.453C50.5747 52.4891 50.994 52.5083 51.4277 52.5083C54.5738 52.5083 58.4651 51.5082 61.0313 49.1042C63.0416 47.2194 63.921 44.8658 63.5065 42.4738L63.5041 42.4834Z" fill="#718CD2"/>
<path d="M37.2095 32.3792L36.4092 31.4849C36.8764 31.0642 38.5082 29.6771 39.9027 29.4775C43.2956 28.9919 45.3395 30.6026 45.6198 31.3575C45.7516 31.7085 45.5935 32.0042 45.3802 32.1436L44.7285 31.1339C44.4314 31.3263 44.4314 31.6821 44.5152 31.8167C44.3595 31.5619 42.8787 30.2637 40.0704 30.6675C39.2246 30.7877 38.0002 31.6652 37.2071 32.3792H37.2095Z" fill="#718CD2"/>
<path d="M33.0665 35.0813C35.4022 35.0813 37.2957 33.0395 37.2957 30.5209C37.2957 28.0022 35.4022 25.9604 33.0665 25.9604C30.7308 25.9604 28.8374 28.0022 28.8374 30.5209C28.8374 33.0395 30.7308 35.0813 33.0665 35.0813Z" fill="white"/>
<path d="M33.0664 35.6824C30.4044 35.6824 28.2383 33.3673 28.2383 30.5209C28.2383 27.6745 30.4044 25.3594 33.0664 25.3594C35.7285 25.3594 37.8946 27.6745 37.8946 30.5209C37.8946 33.3673 35.7285 35.6824 33.0664 35.6824ZM33.0664 26.559C31.0657 26.559 29.4363 28.3356 29.4363 30.5185C29.4363 32.7013 31.0657 34.4779 33.0664 34.4779C35.0672 34.4779 36.6966 32.7013 36.6966 30.5185C36.6966 28.3356 35.0696 26.559 33.0664 26.559Z" fill="#718CD2"/>
<path d="M33.4954 30.5209C33.4954 31.3623 33.0162 32.0426 32.4243 32.0426C31.8325 32.0426 31.3533 31.3623 31.3533 30.5209C31.3533 29.6795 31.8325 28.9991 32.4243 28.9991C33.0162 28.9991 33.4954 29.6795 33.4954 30.5209Z" fill="#718CD2"/>
<path d="M48.4782 34.1678C50.8138 34.1678 52.7073 32.126 52.7073 29.6074C52.7073 27.0887 50.8138 25.0469 48.4782 25.0469C46.1425 25.0469 44.249 27.0887 44.249 29.6074C44.249 32.126 46.1425 34.1678 48.4782 34.1678Z" fill="white"/>
<path d="M48.4783 34.7688C45.8162 34.7688 43.6501 32.4537 43.6501 29.6073C43.6501 26.761 45.8162 24.4435 48.4783 24.4435C51.1404 24.4435 53.3065 26.7586 53.3065 29.6073C53.3065 32.4561 51.1404 34.7688 48.4783 34.7688ZM48.4783 25.6455C46.4776 25.6455 44.8482 27.4221 44.8482 29.6073C44.8482 31.7926 46.4752 33.5668 48.4783 33.5668C50.4815 33.5668 52.1084 31.7902 52.1084 29.6073C52.1084 27.4245 50.4791 25.6455 48.4783 25.6455Z" fill="#718CD2"/>
<path d="M49.1062 29.7925C49.1062 30.6339 48.627 31.3142 48.0352 31.3142C47.4433 31.3142 46.9641 30.6339 46.9641 29.7925C46.9641 28.9511 47.4433 28.2707 48.0352 28.2707C48.627 28.2707 49.1062 28.9511 49.1062 29.7925Z" fill="#718CD2"/>
<path d="M30.0019 38.1826C30.323 38.0095 30.7471 38.9711 32.168 39.5241C33.7399 40.1371 34.8445 39.5962 35.0002 39.976C35.235 40.5482 33.1744 42.8705 31.3917 42.2382C29.597 41.6012 29.4724 38.4639 30.0019 38.1826Z" fill="#718CD2"/>
</svg>
