<svg width="298" height="112" fill="none" xmlns="http://www.w3.org/2000/svg"><path d="M140.88 36.56c0-1.733.32-3.427.96-5.08.667-1.68 1.627-3.2 2.88-4.56 1.253-1.36 2.773-2.44 4.56-3.24 1.813-.827 3.853-1.24 6.12-1.24 2.72 0 5.093.573 7.12 1.72 2.027 1.12 3.533 2.613 4.52 4.48l-5.96 4.24c-.347-.933-.853-1.653-1.52-2.16a5.439 5.439 0 00-2.12-1.04 7.987 7.987 0 00-2.2-.32c-1.12 0-2.093.227-2.92.68-.8.427-1.467 1-2 1.72a8.343 8.343 0 00-1.16 2.4c-.24.88-.36 1.76-.36 2.64 0 .987.147 1.933.44 2.84a7.89 7.89 0 001.28 2.44c.56.693 1.24 1.24 2.04 1.64.827.4 1.747.6 2.76.6.72 0 1.453-.107 2.2-.32a6.108 6.108 0 002.04-1.12c.613-.507 1.08-1.187 1.4-2.04l6.36 3.8c-.56 1.387-1.493 2.573-2.8 3.56-1.307.987-2.787 1.747-4.44 2.28-1.653.507-3.293.76-4.92.76-2.107 0-4.04-.413-5.8-1.24a15.271 15.271 0 01-4.52-3.36 16.05 16.05 0 01-2.92-4.72c-.693-1.76-1.04-3.547-1.04-5.36zM187.296 51V29.4h-5.52l-.16 3.84c-.16 3.627-.506 6.613-1.04 8.96-.506 2.32-1.266 4.147-2.28 5.48-1.013 1.307-2.32 2.24-3.92 2.8-1.573.533-3.48.8-5.72.8v-6.72c.907 0 1.68-.16 2.32-.48.667-.347 1.214-.987 1.64-1.92.454-.96.8-2.333 1.04-4.12.267-1.813.454-4.187.56-7.12l.32-8.32h20.56V51h-7.8zm25.483.24c-2.16 0-4.12-.4-5.88-1.2-1.76-.827-3.28-1.92-4.56-3.28a15.668 15.668 0 01-2.92-4.64c-.667-1.733-1-3.52-1-5.36 0-1.893.36-3.693 1.08-5.4a14.881 14.881 0 013-4.56 14.277 14.277 0 014.6-3.2c1.787-.773 3.733-1.16 5.84-1.16 2.16 0 4.12.413 5.88 1.24 1.76.8 3.267 1.893 4.52 3.28a14.914 14.914 0 012.88 4.68 13.911 13.911 0 011.04 5.28c0 1.867-.36 3.653-1.08 5.36a14.418 14.418 0 01-3 4.6c-1.28 1.333-2.8 2.4-4.56 3.2-1.76.773-3.707 1.16-5.84 1.16zm-6.44-14.4c0 .96.133 1.893.4 2.8.267.88.667 1.68 1.2 2.4a6.12 6.12 0 002 1.68c.827.4 1.8.6 2.92.6 1.12 0 2.093-.213 2.92-.64a5.46 5.46 0 002-1.72 7.62 7.62 0 001.16-2.44c.267-.907.4-1.827.4-2.76 0-.96-.133-1.88-.4-2.76a7.322 7.322 0 00-1.2-2.36 5.446 5.446 0 00-2.04-1.68c-.827-.4-1.787-.6-2.88-.6-1.12 0-2.093.213-2.92.64-.8.427-1.467 1-2 1.72a7.26 7.26 0 00-1.2 2.4c-.24.88-.36 1.787-.36 2.72zm49.346-14.24V51h-7.8V39.88h-9.52V51h-7.8V22.6h7.8v10.48h9.52V22.6h7.8zm4.88 28.4V22.6h7.8V32h4.64c2.133 0 3.96.387 5.48 1.16 1.547.747 2.733 1.827 3.56 3.24.853 1.387 1.28 3.053 1.28 5 0 1.973-.4 3.68-1.2 5.12-.8 1.44-1.947 2.547-3.44 3.32-1.467.773-3.227 1.16-5.28 1.16h-12.84zm7.8-6.32h3.92c.693 0 1.267-.133 1.72-.4a2.4 2.4 0 001-1.12c.24-.507.36-1.093.36-1.76 0-.533-.12-1.027-.36-1.48a2.91 2.91 0 00-1.04-1.16c-.453-.293-1.013-.44-1.68-.44h-3.92v6.36zm18.6 6.32V22.6h7.8V51h-7.8zM141 92.44V80.2h1.76c.667 0 1.253-.267 1.76-.8.507-.533.933-1.347 1.28-2.44s.613-2.467.8-4.12c.213-1.68.36-3.653.44-5.92l.24-8.32h20.6v21.6h4v12.24h-6.8V87H147.8v5.44H141zm10.6-12.24h8.48V65.4h-5.68l-.08 2.64c-.053 2.053-.173 3.867-.36 5.44-.16 1.547-.427 2.88-.8 4-.347 1.12-.867 2.027-1.56 2.72zm44.166 0V87h-20.24V58.6h19.88v6.8h-12.08v4h10.32v6.32h-10.32v4.48h12.44zm25.747-14.8h-8.16V87h-7.8V65.4h-8.2v-6.8h24.16v6.8zm3.001 21.6V58.6h7.8v17.28l10.48-17.28h7.28V87h-7.8V69.72L231.914 87h-7.4z" fill="#fff"/><rect x="114.926" width="98.685" height="98.873" rx="15" transform="rotate(81.648 114.926 0)" fill="#FFC978"/><path d="M85.653 27.36c.04-7.944 29.986-18.812 40.416-9.245.801.736 3.909 3.63 3.694 7.158-.272 4.47-6.082 5.107-6.637 10.209-.443 4.07 3.01 5.95 2.451 9.967-.094.682-.277 1.234-.528 1.7-1.521 2.886-2.643 3.801-4.687 5.947-3.878 4.06-2.398 8.831-4.33 9.98-3.149 1.862-9.151-1.992-12.479-4.393-6.32-4.555-1.923-12.642-8.574-22.003-4.647-6.538-9.34-6.18-9.321-9.325l-.005.005z" fill="#718CD2"/><path d="M83.52 30.684c-.403-7.678 13.52-13.673 15.095-14.333 3.838-1.61 13.342-5.632 21.84-1.274 5.488 2.813 8.405 8.58 7.729 9.388-.742.888-5.076-5.134-13.078-6.148-7.188-.911-16.03 2.064-21.46 8.001-3.999 4.37-5.175 9.37-7.416 9.029-1.463-.224-2.603-2.612-2.71-4.658v-.005z" fill="#99ECFF"/><path d="M86.48 36.572c-.142 0-.285-.009-.438-.036-2.16-.332-3.591-3.204-3.73-5.789-.434-8.266 13.114-14.369 15.834-15.513l.049-.023c4.142-1.736 13.848-5.807 22.802-1.211 4.728 2.423 7.926 7.072 8.413 9.49.148.737.045 1.325-.313 1.747-.993 1.189-2.268.224-3.739-.898-2.067-1.575-5.52-4.21-10.413-4.829-7.098-.902-15.498 2.23-20.422 7.62-1.628 1.782-2.8 3.73-3.744 5.296-1.382 2.293-2.491 4.142-4.303 4.142l.005.004zm-1.761-5.95c.094 1.817 1.09 3.437 1.69 3.527.479.072 1.543-1.683 2.317-2.971.998-1.656 2.237-3.72 4.03-5.681 5.506-6.023 14.55-9.393 22.498-8.383 4.907.624 8.547 3.047 10.779 4.707-1.127-1.781-3.171-4.155-6.127-5.672-7.962-4.084-16.943-.318-20.776 1.293l-.05.022c-5.47 2.293-14.648 7.642-14.357 13.158h-.004zM54.17 35.509c-2.143-9.59-41.203-14.796-51.294-.462-.774 1.099-3.77 5.425-2.58 9.634 1.507 5.332 8.703 4.564 10.712 10.582 1.605 4.802-2.076 7.988-.34 12.704.295.804.662 1.418 1.082 1.921 2.599 3.083 4.83 4.618 7.868 6.668 5.756 3.882 4.821 5.085 7.465 5.956 4.294 1.418 10.305-.593 13.7-4.38 6.44-7.185-1.007-15.792 4.575-28.873 3.896-9.137 9.661-9.945 8.812-13.746v-.004z" fill="#718CD2"/><path d="M57.632 38.96c-1.534-9.39-19.944-12.949-22.028-13.33-5.064-.929-17.619-3.271-26.738 4.25C2.97 34.74.394 42.159 1.423 42.958c1.132.875 5.358-7.23 14.764-10.578 8.45-3.006 19.927-1.754 28.053 3.985 5.985 4.227 8.722 9.958 11.343 8.948 1.709-.66 2.46-3.845 2.049-6.35v-.004z" fill="#99ECFF"/><path d="M54.944 46.647c-1.803 0-3.44-1.737-5.43-3.846-1.561-1.652-3.503-3.711-5.963-5.448-7.447-5.26-18.53-6.835-26.961-3.837-5.748 2.046-9.518 6.005-11.772 8.37-1.727 1.812-2.863 3.006-4.129 2.028-.447-.346-.675-.893-.689-1.625-.04-2.746 3.024-9.15 8.105-13.341 9.514-7.84 22.225-5.51 27.65-4.515l.068.014c3.555.65 21.375 4.407 22.998 14.32.488 2.98-.447 6.762-2.804 7.673-.367.14-.72.207-1.074.207zm-29.02-17.084c6.732 0 13.638 2.019 19.01 5.815 2.656 1.876 4.692 4.03 6.324 5.763 1.62 1.714 3.149 3.334 3.891 3.047.895-.346 1.669-2.733 1.293-5.031-1.391-8.49-19.045-11.968-21.058-12.336l-.067-.014c-5.099-.933-17.041-3.123-25.691 4.008-3.851 3.172-6.088 7.341-6.893 9.756.112-.117.228-.238.336-.355 2.402-2.522 6.418-6.74 12.707-8.975 3.17-1.131 6.633-1.678 10.14-1.678h.008z" fill="#718CD2"/><path d="M73.327 27.444c-3.247.094-11.177.817-18.647 6.292-13.973 10.24-21.035 33.226-11.692 45.427 6.405 8.365 18.102 8.509 31.412 8.666 5.833.067 27.781.323 32.754-10.748.899-1.997.971-4.658 1.123-9.98.259-9.114-1.637-15.496-2.236-17.385-.3-.947-1.025-3.231-2.022-5.269-4.692-9.571-17.381-17.393-30.688-17.003h-.004z" fill="#99ECFF"/><path d="M75.907 89.045c-.5 0-1.01 0-1.525-.009-13.732-.161-25.589-.296-32.352-9.136-3.766-4.919-5.233-11.874-4.128-19.58 1.53-10.707 7.836-21.522 16.066-27.558 7.367-5.398 15.27-6.403 19.322-6.525 6.5-.188 13.325 1.558 19.206 4.923 5.69 3.254 10.162 7.786 12.6 12.754 1.038 2.118 1.776 4.443 2.089 5.434.957 3.02 2.531 9.352 2.294 17.785-.156 5.474-.232 8.225-1.23 10.442-3.421 7.611-14.299 11.466-32.342 11.466v.004zm-2.545-60.393c-3.775.112-11.133 1.045-17.971 6.058-7.734 5.668-13.665 15.855-15.105 25.951-1.01 7.06.29 13.369 3.654 17.767 6.052 7.907 17.368 8.037 30.473 8.19 22.31.25 29.525-5.314 31.645-10.035.8-1.777.872-4.362 1.015-9.518.228-8.077-1.27-14.109-2.183-16.985-.299-.943-.997-3.142-1.954-5.102-4.737-9.667-17.448-16.68-29.574-16.33v.004z" fill="#718CD2"/><path d="M85.036 41.513c1.145-.822 2.433-.822 3.355-.822 3.922 0 6.543 3.707 6.937 3.34.326-.306-1.02-3.308-3.892-4.879-2.245-1.23-5.264-1.494-7.576-.17-1.226.7-2.921 2.23-2.572 3.392.174.575.85 1.068 1.471 1.046.9-.027 1.159-1.104 2.272-1.907h.005zM63.54 42.608c-1.22-.7-2.504-.57-3.421-.472-3.905.404-6.132 4.362-6.562 4.04-.357-.27.676-3.398 3.373-5.256 2.107-1.454 5.085-2.028 7.519-.951 1.292.57 3.13 1.916 2.902 3.11-.111.592-.733 1.148-1.355 1.193-.894.063-1.266-.978-2.455-1.664z" fill="#718CD2"/><path d="M109.9 70.117c-.734-.319-1.593-.714-1.508-1.526.041-.395.305-.794.546-1.18.796-1.28 1.682-2.89 1.892-4.223.098-.633-.027-1.266-.492-1.62-.644-.49-1.785-.35-2.755.067-2.348 1.005-4.026 3.6-3.534 5.475.099.377.269.767.067 1.19-.326.681-1.31.92-2.097 1.126-1.982.525-6.508 3.36-4.21 5.048 1.33.974 3.051-.3 4.38-.538 1.802-.324 3.6.368 4.964 1.543 2.693 2.32 4.245 5.79 2.447 9.146-1.503 2.8-11.24 5.847-17.189 1.898-7.863-5.214-5.577-17.542-7.585-25.62-.314-.74-.958-1.987-2.241-2.992-1.816-1.428-3.793-1.5-5.69-1.571-1.498-.054-3.976-.148-6.038 1.32a8.686 8.686 0 00-1.664 1.597 8.375 8.375 0 00-1.279 2.306c-.317 1.234.013 2.406.148 3.976.434 5.094 2.267 10.923 4.553 15.339 4.227 8.167 11.236 14.934 21.156 15.854 6.369.588 14.411-1.319 19.336-5.932 8.113-7.602 3.886-17.618-3.203-20.683h-.004z" fill="#99ECFF"/><path d="M118.541 79.303c-.783-4.51-3.909-8.455-8.167-10.295-.166-.072-.568-.247-.756-.381.067-.144.201-.36.286-.498l.045-.072c1.207-1.939 1.865-3.424 2.062-4.676.179-1.163-.166-2.168-.953-2.77-.935-.713-2.415-.744-3.958-.084-2.939 1.256-4.876 4.415-4.227 6.888.018.067.036.135.058.202.018.058.04.13.054.188-.21.171-.863.341-1.19.427l-.089.022c-1.494.395-5.251 2.298-5.699 4.658-.107.57-.107 1.652 1.087 2.531 1.458 1.068 3.068.463 4.245.018.393-.148.769-.291 1.055-.34 1.311-.239 2.76.228 3.972 1.27 1.007.865 4.142 3.98 2.174 7.655-.421.785-2.259 1.938-4.956 2.62-3.976 1.006-7.903.575-10.51-1.153-4.997-3.316-5.511-10.038-6.008-16.54-.237-3.115-.46-6.059-1.154-8.67a7.1 7.1 0 00-.246-.755 3.594 3.594 0 01-1.91 2.087c.506 2.24.703 4.81.913 7.521.514 6.754 1.096 14.405 7.076 18.372 3.157 2.096 7.805 2.648 12.425 1.481 2.482-.628 5.493-1.96 6.49-3.814 1.874-3.496.832-7.57-2.724-10.631-1.762-1.517-3.931-2.181-5.962-1.818-.506.09-1.002.279-1.481.458-.948.359-1.596.57-1.977.292-.098-.072-.143-.13-.143-.117.005-.633 2.29-2.352 3.95-2.791l.089-.023c.94-.246 2.228-.588 2.782-1.745.372-.777.175-1.468.054-1.88l-.04-.144c-.304-1.158.899-3.222 2.844-4.057.841-.359 1.445-.3 1.557-.215.022.026.076.188.031.47-.138.898-.72 2.164-1.722 3.77l-.045.068c-.272.435-.612.978-.679 1.624-.175 1.714 1.449 2.419 2.227 2.755 3.466 1.5 6.114 4.834 6.749 8.491.631 3.635-.751 7.256-3.891 10.2-4.906 4.6-12.778 6.126-18.405 5.61-11.267-1.041-17.493-9.976-20.2-15.209-2.33-4.505-4.03-10.209-4.423-14.885-.04-.453-.094-.875-.143-1.279-.094-.727-.165-1.292-.12-1.817-.837-.404-1.517-1.14-1.915-2.006-.693 1.472-.528 2.773-.349 4.133.05.368.099.754.134 1.171.42 4.972 2.219 11.021 4.688 15.792 5.067 9.792 12.922 15.648 22.113 16.5.747.068 1.53.104 2.34.104 5.872 0 13.136-1.867 17.926-6.355 3.753-3.518 5.394-7.911 4.62-12.376l-.004.018z" fill="#718CD2"/><path d="M69.458 60.44l-1.494-1.669c.872-.785 3.918-3.374 6.521-3.747 6.334-.906 10.149 2.1 10.672 3.51.246.655-.05 1.207-.447 1.467l-1.217-1.885c-.554.36-.554 1.023-.398 1.275-.29-.476-3.055-2.9-8.297-2.145-1.579.224-3.864 1.862-5.345 3.195h.005z" fill="#718CD2"/><path d="M61.724 65.485c4.36 0 7.894-3.811 7.894-8.513 0-4.701-3.534-8.513-7.894-8.513s-7.894 3.812-7.894 8.513c0 4.702 3.534 8.513 7.894 8.513z" fill="#fff"/><path d="M61.724 66.607c-4.97 0-9.013-4.322-9.013-9.635s4.044-9.635 9.013-9.635c4.97 0 9.013 4.322 9.013 9.635s-4.044 9.635-9.013 9.635zm0-17.03c-3.735 0-6.776 3.316-6.776 7.39 0 4.075 3.041 7.392 6.776 7.392s6.776-3.317 6.776-7.391c0-4.075-3.037-7.391-6.776-7.391z" fill="#718CD2"/><path d="M62.525 56.972c0 1.57-.895 2.84-2 2.84-1.104 0-1.999-1.27-1.999-2.84 0-1.57.895-2.84 2-2.84 1.104 0 1.999 1.27 1.999 2.84z" fill="#718CD2"/><path d="M90.493 63.78c4.36 0 7.894-3.811 7.894-8.513 0-4.701-3.534-8.513-7.894-8.513s-7.895 3.812-7.895 8.513c0 4.702 3.535 8.513 7.895 8.513z" fill="#fff"/><path d="M90.493 64.901c-4.97 0-9.013-4.321-9.013-9.634 0-5.314 4.044-9.64 9.013-9.64s9.012 4.322 9.012 9.64c0 5.317-4.043 9.634-9.012 9.634zm0-17.03c-3.735 0-6.776 3.316-6.776 7.396 0 4.079 3.037 7.39 6.776 7.39s6.776-3.316 6.776-7.39c0-4.075-3.041-7.396-6.776-7.396z" fill="#718CD2"/><path d="M91.665 55.612c0 1.57-.895 2.84-2 2.84-1.104 0-1.999-1.27-1.999-2.84 0-1.57.895-2.84 2-2.84 1.104 0 1.999 1.27 1.999 2.84zM56.004 71.274c.599-.323 1.39 1.472 4.043 2.504 2.934 1.145 4.996.135 5.287.844.438 1.068-3.408 5.403-6.736 4.223-3.35-1.19-3.583-7.046-2.594-7.57z" fill="#718CD2"/></svg>